<svg width="14" height="14" viewBox="0 0 14 14" fill="none" xmlns="http://www.w3.org/2000/svg">
<g clip-path="url(#clip0_36_4381)">
<path d="M7.59373 1.20014C7.49546 1.00104 7.29268 0.875 7.07065 0.875C6.84863 0.875 6.64585 1.00104 6.54758 1.20014L4.88067 4.57711L1.15295 5.12197C0.933295 5.15407 0.750898 5.30808 0.682428 5.51925C0.613957 5.73042 0.671283 5.96215 0.83031 6.11704L3.52718 8.7438L2.89072 12.4547C2.85318 12.6736 2.94316 12.8948 3.12281 13.0253C3.30246 13.1558 3.54063 13.173 3.73717 13.0696L7.07065 11.3166L10.4041 13.0696C10.6007 13.173 10.8388 13.1558 11.0185 13.0253C11.1982 12.8948 11.2881 12.6736 11.2506 12.4547L10.6141 8.7438L13.311 6.11704C13.47 5.96215 13.5274 5.73042 13.4589 5.51925C13.3904 5.30808 13.208 5.15407 12.9884 5.12197L9.26064 4.57711L7.59373 1.20014Z" fill="#FC9231"/>
</g>
<defs>
<clipPath id="clip0_36_4381">
<rect width="14" height="14" fill="white"/>
</clipPath>
</defs>
</svg>
