<svg width="196" height="112" viewBox="0 0 196 112" fill="none" xmlns="http://www.w3.org/2000/svg">
<path d="M55.5736 49.2357C54.7772 48.443 53.4665 48.0386 51.6992 48C48.9925 48 47.1969 49.2 46.5169 50.2635C46.3541 50.5993 46.2399 50.9565 46.1778 51.3244C46.0568 52.0665 46.0688 52.6535 46.2144 53.3429C46.8666 56.4104 52.1635 57.2964 52.9212 59.1935C53.0556 59.5291 53.0232 59.9679 52.9494 60.2656C52.7904 60.9129 52.3303 61.2295 51.5423 61.2295C50.7107 61.2295 50.1 60.7669 50.1 59.9286L50.0979 58.4373H46.0026L45.9998 59.6344C45.9998 62.1647 47.5771 64 51.46 64C54.2418 64 56.427 63.0423 56.7808 60.5604C56.9539 59.3479 56.8442 58.5005 56.7633 58.1045C56.1463 55.0273 50.4736 53.9917 50.0649 52.3242C50.0068 52.0743 50.0015 51.8151 50.0494 51.5631C50.1922 50.9256 50.6347 50.602 51.353 50.602C52.2078 50.602 52.6905 51.0997 52.6905 51.9029V52.8669H56.5107V51.7752C56.5107 50.7115 56.1962 49.8577 55.5736 49.2357Z" fill="#6C727F"/>
<path d="M145.024 63.7086C145.199 63.7086 145.364 63.6904 145.534 63.682C146.428 63.6375 148.679 63.2703 149.668 61.8249C150.022 61.3089 150.247 60.7051 150.311 59.9918C150.358 59.4862 150.362 59.2833 150.363 59.0088V54.9746H144.995V57.2424H146.513V59.3479C146.514 59.501 146.51 59.72 146.477 59.904C146.46 60.0107 146.265 60.9473 145.011 60.9473C143.747 60.9473 143.552 60.0107 143.534 59.904C143.51 59.7685 143.498 59.5838 143.501 59.3479V52.5524C143.501 52.2786 143.52 52.0314 143.56 51.8594C143.631 51.5463 143.912 50.8175 144.998 50.8175C146.097 50.8175 146.365 51.5449 146.428 51.8587C146.47 52.0644 146.476 52.3937 146.476 52.4127V53.2938H150.334V52.7033L150.334 52.6849C150.335 52.5334 150.337 52.1395 150.299 51.7695C149.998 48.6944 147.259 48.0548 145.025 48.0548C142.138 48.0548 140.056 49.1388 139.74 51.7674C139.71 52.0118 139.678 52.485 139.678 52.7546L139.677 59.0074C139.678 59.2897 139.686 59.4968 139.729 59.9918C139.976 62.7117 142.357 63.7086 145.024 63.7086Z" fill="#6C727F"/>
<path d="M65.3823 50.1667L67.3367 63.4194H71.4334L68.6798 48.4529H61.9589L59.1884 63.4194H63.3076L65.312 50.1667H65.3823Z" fill="#6C727F"/>
<path d="M87.059 50.4229L87.1498 63.4194H90.9679L90.6372 48.4529H84.4785L82.6795 59.5705H82.5916L80.7976 48.4529H74.636L74.3039 63.4194H78.1347L78.2226 50.4229H78.2915L80.7033 63.4194H84.5692L86.9929 50.4229H87.059Z" fill="#6C727F"/>
<path d="M99.9197 63.9249C101.931 63.9249 104.777 63.418 105.189 60.519C105.36 59.3114 105.251 58.4766 105.172 58.0877C104.556 55.0392 98.9334 54.0247 98.5281 52.3649C98.4695 52.1181 98.4633 51.8617 98.5098 51.6123C98.6534 50.9811 99.091 50.6602 99.8142 50.6602C100.63 50.6602 101.137 51.132 101.137 51.9479V52.9006H104.92V51.8208C104.92 50.7684 104.608 49.9223 103.991 49.3059C103.164 48.4802 101.784 48.0674 99.8888 48.0674C97.7697 48.0674 95.1371 48.6361 94.6924 51.3736C94.5721 52.1079 94.5827 52.6893 94.729 53.3738C95.3678 56.3935 100.623 57.3055 101.369 59.1668C101.498 59.4954 101.468 59.9307 101.395 60.2291C101.237 60.8694 100.781 61.1811 100.003 61.1811C99.1304 61.1811 98.5654 60.6917 98.5654 59.8921L98.5626 58.4191H94.5166L94.5145 59.6014C94.5145 62.5003 96.58 63.9249 99.9197 63.9249Z" fill="#6C727F"/>
<path d="M119.165 60.1448C119.181 60.0009 119.208 59.4399 119.202 59.1591V48.4493H115.346V59.4989C115.346 59.7369 115.333 59.9286 115.311 60.0592C115.26 60.3014 115.015 61.0997 113.926 61.0997C112.833 61.0997 112.588 60.3021 112.541 60.0563C112.516 59.9293 112.503 59.7467 112.507 59.4996V48.4493H108.637V59.1619C108.635 59.4899 108.648 59.8178 108.674 60.1448C108.903 62.6106 110.672 63.8638 113.926 63.8638C117.167 63.8638 118.934 62.6106 119.165 60.1448Z" fill="#6C727F"/>
<path d="M130.493 63.267H135.88V48.4529H132.098L132.296 59.8408H132.218L128.876 48.4529H123.264V63.267H127.018L126.817 51.4122H126.878L130.493 63.267Z" fill="#6C727F"/>
</svg>
