<svg width="76" height="12" viewBox="0 0 76 12" fill="none" xmlns="http://www.w3.org/2000/svg">
<g clip-path="url(#clip0_32_7110)">
<path d="M6.50892 1.02869C6.42468 0.858036 6.25087 0.75 6.06056 0.75C5.87025 0.75 5.69644 0.858036 5.61221 1.02869L4.18343 3.92323L0.988247 4.39026C0.799967 4.41778 0.643627 4.54978 0.584938 4.73078C0.52625 4.91179 0.575386 5.11041 0.711695 5.24318L3.0233 7.49468L2.47776 10.6755C2.44558 10.8631 2.52271 11.0527 2.67669 11.1645C2.83068 11.2764 3.03483 11.2911 3.20329 11.2025L6.06056 9.69992L8.91784 11.2025C9.08629 11.2911 9.29044 11.2764 9.44443 11.1645C9.59842 11.0527 9.67554 10.8631 9.64337 10.6755L9.09782 7.49468L11.4094 5.24318C11.5457 5.11041 11.5949 4.91179 11.5362 4.73078C11.4775 4.54978 11.3212 4.41778 11.1329 4.39026L7.93769 3.92323L6.50892 1.02869Z" fill="#FC9231"/>
</g>
<g clip-path="url(#clip1_32_7110)">
<path d="M22.5089 1.02869C22.4247 0.858036 22.2509 0.75 22.0606 0.75C21.8703 0.75 21.6964 0.858036 21.6122 1.02869L20.1834 3.92323L16.9882 4.39026C16.8 4.41778 16.6436 4.54978 16.5849 4.73078C16.5262 4.91179 16.5754 5.11041 16.7117 5.24318L19.0233 7.49468L18.4778 10.6755C18.4456 10.8631 18.5227 11.0527 18.6767 11.1645C18.8307 11.2764 19.0348 11.2911 19.2033 11.2025L22.0606 9.69992L24.9178 11.2025C25.0863 11.2911 25.2904 11.2764 25.4444 11.1645C25.5984 11.0527 25.6755 10.8631 25.6434 10.6755L25.0978 7.49468L27.4094 5.24318C27.5457 5.11041 27.5949 4.91179 27.5362 4.73078C27.4775 4.54978 27.3212 4.41778 27.1329 4.39026L23.9377 3.92323L22.5089 1.02869Z" fill="#FC9231"/>
</g>
<g clip-path="url(#clip2_32_7110)">
<path d="M38.5089 1.02869C38.4247 0.858036 38.2509 0.75 38.0606 0.75C37.8703 0.75 37.6964 0.858036 37.6122 1.02869L36.1834 3.92323L32.9882 4.39026C32.8 4.41778 32.6436 4.54978 32.5849 4.73078C32.5262 4.91179 32.5754 5.11041 32.7117 5.24318L35.0233 7.49468L34.4778 10.6755C34.4456 10.8631 34.5227 11.0527 34.6767 11.1645C34.8307 11.2764 35.0348 11.2911 35.2033 11.2025L38.0606 9.69992L40.9178 11.2025C41.0863 11.2911 41.2904 11.2764 41.4444 11.1645C41.5984 11.0527 41.6755 10.8631 41.6434 10.6755L41.0978 7.49468L43.4094 5.24318C43.5457 5.11041 43.5949 4.91179 43.5362 4.73078C43.4775 4.54978 43.3212 4.41778 43.1329 4.39026L39.9377 3.92323L38.5089 1.02869Z" fill="#FC9231"/>
</g>
<g clip-path="url(#clip3_32_7110)">
<path d="M54.5089 1.02869C54.4247 0.858036 54.2509 0.75 54.0606 0.75C53.8703 0.75 53.6964 0.858036 53.6122 1.02869L52.1834 3.92323L48.9882 4.39026C48.8 4.41778 48.6436 4.54978 48.5849 4.73078C48.5262 4.91179 48.5754 5.11041 48.7117 5.24318L51.0233 7.49468L50.4778 10.6755C50.4456 10.8631 50.5227 11.0527 50.6767 11.1645C50.8307 11.2764 51.0348 11.2911 51.2033 11.2025L54.0606 9.69992L56.9178 11.2025C57.0863 11.2911 57.2904 11.2764 57.4444 11.1645C57.5984 11.0527 57.6755 10.8631 57.6434 10.6755L57.0978 7.49468L59.4094 5.24318C59.5457 5.11041 59.5949 4.91179 59.5362 4.73078C59.4775 4.54978 59.3212 4.41778 59.1329 4.39026L55.9377 3.92323L54.5089 1.02869Z" fill="#FC9231"/>
</g>
<g clip-path="url(#clip4_32_7110)">
<path d="M70.4484 0.778688C70.3641 0.608036 70.1903 0.5 70 0.5C69.8097 0.5 69.6359 0.608036 69.5517 0.778688L68.1229 3.67323L64.9277 4.14026C64.7394 4.16778 64.5831 4.29978 64.5244 4.48078C64.4657 4.66179 64.5148 4.86041 64.6511 4.99318L66.9628 7.24468L66.4172 10.4255C66.385 10.6131 66.4622 10.8027 66.6161 10.9145C66.7701 11.0264 66.9743 11.0411 67.1427 10.9525L70 9.44992L72.8573 10.9525C73.0257 11.0411 73.2299 11.0264 73.3839 10.9145C73.5379 10.8027 73.615 10.6131 73.5828 10.4255L73.0373 7.24468L75.3489 4.99318C75.4852 4.86041 75.5343 4.66179 75.4756 4.48078C75.4169 4.29978 75.2606 4.16778 75.0723 4.14026L71.8771 3.67323L70.4484 0.778688Z" fill="#FC9231"/>
</g>
<defs>
<clipPath id="clip0_32_7110">
<rect width="12" height="12" fill="white"/>
</clipPath>
<clipPath id="clip1_32_7110">
<rect width="12" height="12" fill="white" transform="translate(16)"/>
</clipPath>
<clipPath id="clip2_32_7110">
<rect width="12" height="12" fill="white" transform="translate(32)"/>
</clipPath>
<clipPath id="clip3_32_7110">
<rect width="12" height="12" fill="white" transform="translate(48)"/>
</clipPath>
<clipPath id="clip4_32_7110">
<rect width="12" height="12" fill="white" transform="translate(64)"/>
</clipPath>
</defs>
</svg>
