<svg width="86" height="86" viewBox="0 0 86 86" fill="none" xmlns="http://www.w3.org/2000/svg">
<rect width="86" height="86" fill="#F5F7FA"/>
<g clip-path="url(#clip0_32_6838)">
<path d="M58.8848 52.1152L57.0262 46.7063C57.9221 44.8749 58.3956 42.8382 58.3987 40.7888C58.4042 37.2255 57.0256 33.8563 54.5167 31.3019C52.0074 28.7471 48.6635 27.3089 45.101 27.2524C41.4069 27.1941 37.9346 28.5992 35.3242 31.2096C32.8071 33.7266 31.4109 37.045 31.3668 40.591C28.8859 42.4588 27.4216 45.371 27.4264 48.4816C27.4287 49.9372 27.7563 51.3842 28.3771 52.6926L27.0969 56.4181C26.8769 57.0586 27.0376 57.7539 27.5165 58.2328C27.8535 58.5699 28.2978 58.7493 28.7548 58.7493C28.947 58.7493 29.1415 58.7176 29.3312 58.6524L33.0568 57.3722C34.3652 57.993 35.8121 58.3206 37.2678 58.3229C37.273 58.3229 37.278 58.3229 37.2833 58.3229C40.4402 58.3228 43.3745 56.8207 45.2356 54.2791C47.1723 54.2281 49.0885 53.7592 50.8208 52.9118L56.2298 54.7704C56.4552 54.8479 56.6863 54.8856 56.9147 54.8856C57.4577 54.8856 57.9857 54.6724 58.3863 54.2717C58.9553 53.7027 59.1463 52.8764 58.8848 52.1152ZM37.2831 56.4182C37.2791 56.4182 37.2748 56.4182 37.2707 56.4182C35.9823 56.4162 34.7029 56.0986 33.571 55.4997C33.3382 55.3767 33.0649 55.3554 32.8161 55.4409L28.9959 56.7536L30.3086 52.9334C30.3941 52.6845 30.3728 52.4112 30.2497 52.1785C29.6508 51.0465 29.3332 49.7672 29.3312 48.4787C29.328 46.4063 30.1342 44.442 31.544 42.9711C32.0045 45.7783 33.3424 48.3652 35.4163 50.4022C37.4749 52.4242 40.0625 53.7116 42.8545 54.1324C41.3803 55.5855 39.393 56.4182 37.2831 56.4182ZM57.0393 52.9249C56.9851 52.9791 56.9209 52.9938 56.8486 52.9689L51.0581 50.9792C50.9575 50.9446 50.8529 50.9275 50.7487 50.9275C50.595 50.9275 50.4419 50.9647 50.3033 51.038C48.65 51.9127 46.7817 52.3765 44.9003 52.3794C44.8942 52.3794 44.8885 52.3794 44.8823 52.3794C38.5784 52.3794 33.3713 47.2585 33.2715 40.9561C33.2211 37.782 34.4285 34.799 36.6711 32.5564C38.9136 30.3138 41.8972 29.1069 45.0708 29.1569C51.3794 29.2569 56.5037 34.4736 56.494 40.7858C56.4911 42.6672 56.0272 44.5355 55.1527 46.1887C55.0296 46.4214 55.0083 46.6947 55.0938 46.9436L57.0835 52.7341C57.1083 52.8066 57.0934 52.8708 57.0393 52.9249Z" fill="#181D25"/>
<path d="M50.5558 35.7195H39.2083C38.6823 35.7195 38.2559 36.146 38.2559 36.6719C38.2559 37.1979 38.6823 37.6243 39.2083 37.6243H50.5558C51.0818 37.6243 51.5082 37.1978 51.5082 36.6719C51.5082 36.146 51.0818 35.7195 50.5558 35.7195Z" fill="#181D25"/>
<path d="M50.5558 39.6365H39.2083C38.6823 39.6365 38.2559 40.0629 38.2559 40.5888C38.2559 41.1148 38.6823 41.5412 39.2083 41.5412H50.5558C51.0818 41.5412 51.5082 41.1148 51.5082 40.5888C51.5082 40.0629 51.0818 39.6365 50.5558 39.6365Z" fill="#181D25"/>
<path d="M46.1878 43.5533H39.2082C38.6822 43.5533 38.2558 43.9797 38.2558 44.5057C38.2558 45.0317 38.6823 45.458 39.2082 45.458H46.1877C46.7137 45.458 47.1401 45.0316 47.1401 44.5057C47.1401 43.9797 46.7138 43.5533 46.1878 43.5533Z" fill="#181D25"/>
</g>
<defs>
<clipPath id="clip0_32_6838">
<rect width="32" height="32" fill="white" transform="translate(27 27)"/>
</clipPath>
</defs>
</svg>
