<svg width="196" height="112" viewBox="0 0 196 112" fill="none" xmlns="http://www.w3.org/2000/svg">
<path d="M65.6744 64.3504C61.211 64.3504 57.5937 60.612 57.5937 56.0006C57.5937 51.389 61.211 47.6542 65.6744 47.6542C67.2476 47.6542 68.7164 48.1176 69.9572 48.921L65.6744 56.0006L73.7372 51.1917C72.8612 49.75 71.6048 48.5077 70.0856 47.5651C68.1524 46.3695 65.4632 45.6296 62.4896 45.6296C58.2478 45.6296 54.5265 47.2218 52.4512 49.6062C50.9148 51.3688 50 53.5872 50 56.0005C50 58.4155 50.9148 60.6355 52.4512 62.3994C54.5319 64.7867 58.1978 66.3696 62.3696 66.3696C66.5408 66.3696 70.2056 64.7855 72.2876 62.3994C72.4016 62.268 72.512 62.1354 72.6164 61.9978L72.302 60.7805C70.8392 62.9373 68.4164 64.3504 65.6744 64.3504Z" fill="#6C727F"/>
<path d="M92.4056 65.8676L89.0216 52.8276C88.478 50.7204 86.6204 49.1716 84.4088 49.1716C83.8352 49.1716 83.2856 49.2775 82.7756 49.4691L75.4904 52.2055H82.9832L84.2636 57.1448C83.0216 56.0407 81.404 55.3688 79.6328 55.3688C76.1156 55.3688 73.268 57.8034 73.268 60.8066C73.268 63.81 76.1156 66.2482 79.6328 66.2482C82.1648 66.2482 84.404 64.9677 85.7852 63.0006L86.528 65.8676H92.4056ZM82.0832 63.8422C80.4608 63.8422 79.1456 62.4849 79.1456 60.8066C79.1456 59.1307 80.4608 57.7722 82.0832 57.7722C83.7056 57.7722 85.022 59.1307 85.022 60.8066C85.022 62.4849 83.7056 63.8422 82.0832 63.8422Z" fill="#6C727F"/>
<path d="M106.203 49.1739C105.759 49.1739 105.339 49.2752 104.965 49.4568L100.287 51.7086C100.056 50.2702 98.846 49.1739 97.3868 49.1739C96.9452 49.1739 96.524 49.2752 96.1448 49.4568L90.434 52.2055H94.4492V65.8677H100.327V53.7254C100.327 52.8876 100.983 52.2056 101.797 52.2056C102.606 52.2056 103.267 52.8876 103.267 53.7254V65.8677H109.142V52.2055C109.142 50.53 107.826 49.1739 106.203 49.1739Z" fill="#6C727F"/>
<path d="M143.062 49.1739C142.617 49.1739 142.195 49.2752 141.814 49.4568L137.142 51.7086C136.911 50.2702 135.702 49.1739 134.242 49.1739C133.801 49.1739 133.38 49.2752 132.999 49.4568L127.291 52.2055H131.305V65.8677H137.181V53.7254C137.181 52.8876 137.839 52.2056 138.652 52.2056C139.464 52.2056 140.12 52.8876 140.12 53.7254V65.8677H146V52.2055C146 50.53 144.682 49.1739 143.062 49.1739Z" fill="#6C727F"/>
<path d="M128.241 57.772C128.241 62.5209 124.515 66.3696 119.919 66.3696C115.32 66.3696 111.591 62.5209 111.591 57.772C111.591 53.0245 115.32 49.1739 119.919 49.1739C124.515 49.1739 128.241 53.0246 128.241 57.772ZM120.264 51.7833C120.002 50.7716 118.995 50.1711 118.016 50.443C117.038 50.7139 116.454 51.7545 116.716 52.766L119.571 63.7604C119.835 64.7731 120.84 65.373 121.819 65.1053C122.798 64.8314 123.38 63.7914 123.117 62.7799L120.264 51.7833Z" fill="#6C727F"/>
</svg>
