<svg width="196" height="112" viewBox="0 0 196 112" fill="none" xmlns="http://www.w3.org/2000/svg">
<path d="M70.1913 53.5978C70.1484 49.1689 73.8689 47.0411 74.0363 46.9397C71.9422 43.9295 68.6893 43.5157 67.5307 43.4693C64.7628 43.1906 62.1279 45.0736 60.7204 45.0736C59.3128 45.0736 57.1457 43.5073 54.8498 43.5537C51.8288 43.596 49.0437 45.2805 47.4859 47.9403C44.3533 53.2853 46.6878 61.2226 49.7475 65.567C51.2451 67.6906 53.0217 70.0845 55.3648 69.9958C57.622 69.9072 58.4717 68.5604 61.1924 68.5604C63.9131 68.5604 64.6812 69.9958 67.0629 69.9536C69.4875 69.9072 71.0238 67.7835 72.5086 65.6514C74.2165 63.1816 74.9246 60.7962 74.9675 60.6695C74.9117 60.6484 70.2428 58.8879 70.1913 53.5978Z" fill="#6C727F"/>
<path d="M65.7152 40.5899C66.9597 39.108 67.7965 37.0519 67.5691 35C65.7796 35.0718 63.6125 36.1737 62.3294 37.6556C61.1793 38.9644 60.1709 41.0585 60.4455 43.0682C62.4324 43.2201 64.475 42.0676 65.7152 40.5899ZM85.8844 57.9505L83.8246 64.0935H81.1768L87.9185 44.5712H91.0082L97.7756 64.0935H95.0378L92.9179 57.9505H85.8844ZM92.39 55.9789L90.4504 50.3595C90.0084 49.0844 89.7166 47.9276 89.4205 46.7961H89.3647C89.0686 47.953 88.7467 49.1393 88.3648 50.3299L86.4251 55.9747L92.39 55.9789ZM99.784 54.649C99.784 52.8546 99.7282 51.4023 99.6638 50.0724H101.99L102.11 52.4789H102.166C103.226 50.769 104.904 49.7557 107.229 49.7557C110.675 49.7557 113.263 52.6224 113.263 56.8824C113.263 61.9234 110.143 64.4101 106.787 64.4101C104.904 64.4101 103.256 63.5995 102.402 62.2105H102.346V69.8269H99.784V54.649ZM102.342 58.3854C102.342 58.7654 102.397 59.1074 102.462 59.4282C102.934 61.193 104.492 62.4131 106.35 62.4131C109.088 62.4131 110.68 60.2135 110.68 56.9964C110.68 54.1846 109.178 51.7865 106.44 51.7865C104.676 51.7865 103.028 53.032 102.522 54.9445C102.432 55.2612 102.346 55.6411 102.346 55.9873L102.342 58.3854ZM115.941 54.649C115.941 52.8546 115.885 51.4023 115.821 50.0724H118.147L118.267 52.4789H118.322C119.382 50.769 121.06 49.7557 123.386 49.7557C126.832 49.7557 129.42 52.6224 129.42 56.8824C129.42 61.9234 126.3 64.4101 122.944 64.4101C121.06 64.4101 119.412 63.5995 118.558 62.2105H118.503V69.8269H115.941V54.649ZM118.503 58.3854C118.503 58.7654 118.558 59.1074 118.623 59.4282C119.095 61.193 120.653 62.4131 122.511 62.4131C125.249 62.4131 126.841 60.2135 126.841 56.9964C126.841 54.1846 125.339 51.7865 122.601 51.7865C120.837 51.7865 119.189 53.032 118.683 54.9445C118.593 55.2612 118.507 55.6411 118.507 55.9873L118.503 58.3854ZM132.102 43.5283H134.694V64.0893H132.102V43.5283ZM139.903 57.5452C139.959 60.9903 142.199 62.4131 144.787 62.4131C146.641 62.4131 147.761 62.0965 148.731 61.6912L149.173 63.5151C148.263 63.9204 146.701 64.3848 144.435 64.3848C140.049 64.3848 137.427 61.5476 137.427 57.3172C137.427 53.0869 139.959 49.7557 144.109 49.7557C148.761 49.7557 149.997 53.7793 149.997 56.3589C149.997 56.8824 149.941 57.2835 149.907 57.5452H139.903ZM147.499 55.7214C147.529 54.1001 146.821 51.5796 143.907 51.5796C141.285 51.5796 140.14 53.9566 139.934 55.7214H147.499Z" fill="#6C727F"/>
</svg>
