<svg width="86" height="86" viewBox="0 0 86 86" fill="none" xmlns="http://www.w3.org/2000/svg">
<rect width="86" height="86" fill="#F5F7FA"/>
<path fill-rule="evenodd" clip-rule="evenodd" d="M57.6667 31.1667C58.311 31.1667 58.8333 31.689 58.8333 32.3333V40.3333C58.8333 40.9777 58.311 41.5 57.6667 41.5H49.6667C49.0223 41.5 48.5 40.9777 48.5 40.3333C48.5 39.689 49.0223 39.1667 49.6667 39.1667H56.5V32.3333C56.5 31.689 57.0223 31.1667 57.6667 31.1667Z" fill="#181D25"/>
<path fill-rule="evenodd" clip-rule="evenodd" d="M27.1667 45.6667C27.1667 45.0223 27.689 44.5 28.3333 44.5H36.3333C36.9777 44.5 37.5 45.0223 37.5 45.6667C37.5 46.311 36.9777 46.8333 36.3333 46.8333H29.5V53.6667C29.5 54.311 28.9777 54.8333 28.3333 54.8333C27.689 54.8333 27.1667 54.311 27.1667 53.6667V45.6667Z" fill="#181D25"/>
<path fill-rule="evenodd" clip-rule="evenodd" d="M46.0028 32.5964C44.2448 32.0879 42.3867 32.0331 40.6018 32.4369C38.817 32.8408 37.1635 33.6902 35.7957 34.9059C34.4279 36.1216 33.3903 37.664 32.7798 39.3892C32.5649 39.9966 31.8982 40.3148 31.2908 40.0998C30.6834 39.8849 30.3652 39.2182 30.5802 38.6108C31.3221 36.5141 32.5832 34.6394 34.2456 33.1619C35.908 31.6843 37.9176 30.6519 40.0869 30.1611C42.2562 29.6703 44.5145 29.737 46.6511 30.355C48.7817 30.9712 50.7219 32.1157 52.2919 33.682L58.4656 39.4831C58.9351 39.9243 58.9581 40.6627 58.5169 41.1322C58.0757 41.6018 57.3373 41.6248 56.8678 41.1835L50.6811 35.3702C50.6722 35.3619 50.6635 35.3534 50.6548 35.3448C49.3612 34.0504 47.7607 33.1049 46.0028 32.5964ZM27.4831 44.8678C27.9243 44.3982 28.6627 44.3752 29.1322 44.8165L35.3189 50.6298C35.3278 50.6381 35.3365 50.6466 35.3452 50.6552C36.6388 51.9496 38.2393 52.8951 39.9972 53.4036C41.7552 53.9121 43.6133 53.9669 45.3982 53.5631C47.183 53.1592 48.8365 52.3098 50.2043 51.0941C51.5721 49.8784 52.6097 48.336 53.2202 46.6108C53.4351 46.0034 54.1018 45.6852 54.7092 45.9002C55.3166 46.1151 55.6348 46.7818 55.4198 47.3892C54.6779 49.4859 53.4168 51.3606 51.7544 52.8381C50.092 54.3157 48.0824 55.3481 45.9131 55.8389C43.7438 56.3297 41.4855 56.263 39.3489 55.645C37.2183 55.0288 35.2781 53.8843 33.7081 52.318L27.5344 46.5169C27.0649 46.0757 27.0419 45.3373 27.4831 44.8678Z" fill="#181D25"/>
</svg>
