<svg width="86" height="86" viewBox="0 0 86 86" fill="none" xmlns="http://www.w3.org/2000/svg">
<rect width="86" height="86" fill="#F5F7FA"/>
<path fill-rule="evenodd" clip-rule="evenodd" d="M30.9658 33.3226C30.8661 33.3226 30.7704 33.3634 30.6999 33.436C30.6294 33.5086 30.5897 33.607 30.5897 33.7097V49.5806H31.4976C31.9887 47.7934 33.5851 46.4839 35.4786 46.4839C37.3722 46.4839 38.9686 47.7934 39.4597 49.5806H43.3761V33.3226H30.9658ZM45.6325 32.5484V32.1613C45.6325 31.5199 45.1274 31 44.5043 31H30.9658C30.2676 31 29.5981 31.2855 29.1044 31.7936C28.6107 32.3018 28.3333 32.991 28.3333 33.7097V50.7419C28.3333 51.3833 28.8384 51.9032 29.4615 51.9032H31.4976C31.9887 53.6905 33.5851 55 35.4786 55C37.3722 55 38.9686 53.6905 39.4597 51.9032H46.5403C47.0314 53.6905 48.6278 55 50.5214 55C52.4149 55 54.0113 53.6905 54.5024 51.9032H56.5385C57.1616 51.9032 57.6667 51.3833 57.6667 50.7419V41.4516C57.6667 41.2411 57.6111 41.0346 57.5059 40.8541L52.9931 33.1122C52.7892 32.7624 52.4219 32.5484 52.0256 32.5484H45.6325ZM45.6325 34.871V40.2903H54.5458L51.3869 34.871H45.6325ZM55.4103 42.6129H45.6325V49.5806H46.5403C47.0314 47.7934 48.6278 46.4839 50.5214 46.4839C52.4149 46.4839 54.0113 47.7934 54.5024 49.5806H55.4103V42.6129ZM35.4786 48.8065C34.4401 48.8065 33.5983 49.673 33.5983 50.7419C33.5983 51.8109 34.4401 52.6774 35.4786 52.6774C36.5171 52.6774 37.359 51.8109 37.359 50.7419C37.359 49.673 36.5171 48.8065 35.4786 48.8065ZM50.5214 48.8065C49.4829 48.8065 48.641 49.673 48.641 50.7419C48.641 51.8109 49.4829 52.6774 50.5214 52.6774C51.5599 52.6774 52.4017 51.8109 52.4017 50.7419C52.4017 49.673 51.5599 48.8065 50.5214 48.8065Z" fill="#181D25"/>
</svg>
