<svg width="196" height="112" viewBox="0 0 196 112" fill="none" xmlns="http://www.w3.org/2000/svg">
<path fill-rule="evenodd" clip-rule="evenodd" d="M25.9998 62.3327L29.5171 50.4835H35.5742L37.1038 55.5468L41.4981 50.4597H47.9271L44.5813 62.3217L39.7229 62.3386L41.4981 56.219L35.8599 62.3386H33.4713L31.7312 55.792L29.7757 62.3386L25.9998 62.3327ZM68.7878 50.4577L83.7117 50.4835L82.8156 54.3098H77.6917L75.5867 62.3327L70.8637 62.3386L72.8273 54.3435H67.7835L68.7878 50.4577ZM108.815 50.4795V53.2346H108.823L108.242 55.527H113.358C113.358 55.527 114.601 55.3135 114.672 54.1906C114.731 53.1968 113.797 53.2663 113.797 53.2663L108.816 53.2485V50.4825L116.523 50.4785C116.523 50.4785 119.822 50.7257 119.501 53.5533C119.171 56.3788 116.139 57.2803 116.139 57.2803C116.139 57.2803 115.954 57.4609 116.097 57.5672C116.241 57.6714 117.373 57.8829 117.517 58.9402C117.66 59.9996 117.145 60.77 117.145 61.0907C117.145 61.4054 117.178 62.0408 117.584 62.3217H112.714C112.714 62.3217 111.844 62.1897 111.919 61.3011C111.991 60.4225 112.032 59.6491 112.032 59.6491C112.032 59.6491 111.96 58.7268 110.654 58.837L107.092 58.8022L106.078 62.3337H101.611L105.012 50.4805L108.815 50.4795ZM142.642 50.4795H147.213L144.999 59.0762H152.521L151.648 62.3426H139.519L142.642 50.4795ZM167.135 50.4696L169.877 62.3386H165.122L164.619 60.2815L164.602 60.2418H158.84L158.82 60.2597L157.429 62.3327L153.402 62.3386L161.534 50.4696L163.109 53.9682L160.751 57.4272L160.819 57.452H163.875L163.93 57.4461L163.109 53.9682L161.534 50.4696H167.135ZM58.582 53.1065C60.0324 53.1065 61.4607 53.8173 61.6862 54.8489C62.3749 58.148 58.8226 59.5607 59.2395 59.3532C57.1958 60.357 54.0905 60.0353 53.7256 57.9554C53.3798 55.9558 54.9385 53.9871 56.2505 53.5175C57.1486 53.1968 57.8894 53.0608 58.582 53.1065L58.592 53.0757L58.6091 50C57.6699 50.0189 56.6124 50.134 55.7784 50.2958C52.1971 50.9759 47.6835 54.1986 48.4784 58.278C49.1479 61.7261 53.87 63.5766 59.1644 62.563C64.129 61.6188 67.3796 57.8323 66.6809 54.4736C66.0094 51.2241 62.1233 50 58.6091 50V52.6597L58.582 53.1065ZM93.2931 53.1065C94.7415 53.1065 96.1749 53.8173 96.3874 54.8489C97.089 58.148 93.5327 59.5607 93.9567 59.3532C91.9099 60.357 88.8016 60.0353 88.4398 57.9554C88.089 55.9558 89.6486 53.9871 90.9637 53.5175C91.8588 53.1968 92.6095 53.0608 93.2931 53.1065L93.3031 53.0757L93.3232 50C92.3711 50.0227 91.4225 50.1216 90.4866 50.2958C86.9082 50.9759 82.3876 54.1986 83.1825 58.278C83.8511 61.7261 88.5851 63.5766 93.8705 62.563C98.8401 61.6188 102.096 57.8323 101.394 54.4736C100.72 51.2241 96.8354 50 93.3222 50V52.6597L93.2931 53.1065ZM131.029 53.0757C132.478 53.1552 133.897 53.8173 134.119 54.8489C134.811 58.148 131.258 59.5607 131.685 59.3532C129.637 60.357 126.53 60.0353 126.166 57.9554C125.817 55.9558 127.372 53.9871 128.69 53.5175C129.768 53.1293 130.189 53.0211 131.029 53.0757L131.049 50C130.097 50.0232 129.149 50.1221 128.213 50.2958C124.64 50.9759 120.124 54.1986 120.915 58.278C121.584 61.7261 126.314 63.5766 131.604 62.563C136.568 61.6188 139.824 57.8323 139.117 54.4736C138.448 51.2241 134.562 50 131.049 50V52.6597L131.029 53.0757Z" fill="#6C727F"/>
</svg>
