<svg width="14" height="14" viewBox="0 0 14 14" fill="none" xmlns="http://www.w3.org/2000/svg">
<path d="M7.5231 0.90847C7.42482 0.709376 7.22205 0.583333 7.00002 0.583333C6.77799 0.583333 6.57521 0.709376 6.47694 0.90847L4.81003 4.28544L1.08232 4.8303C0.862657 4.86241 0.68026 5.01641 0.61179 5.22758C0.543319 5.43875 0.600645 5.67048 0.759673 5.82538L3.45655 8.45213L2.82008 12.1631C2.78254 12.3819 2.87252 12.6031 3.05217 12.7336C3.23183 12.8641 3.47 12.8813 3.66653 12.778L7.00002 11.0249L10.3335 12.778C10.53 12.8813 10.7682 12.8641 10.9479 12.7336C11.1275 12.6031 11.2175 12.3819 11.18 12.1631L10.5435 8.45213L13.2404 5.82538C13.3994 5.67048 13.4567 5.43875 13.3882 5.22758C13.3198 5.01641 13.1374 4.86241 12.9177 4.8303L9.19 4.28544L7.5231 0.90847Z" fill="#FC9231"/>
</svg>
