<svg width="20" height="20" viewBox="0 0 20 20" fill="none" xmlns="http://www.w3.org/2000/svg">
<path fill-rule="evenodd" clip-rule="evenodd" d="M15 2.5H5C3.61929 2.5 2.5 3.61929 2.5 5V15C2.5 16.3807 3.61929 17.5 5 17.5H15C16.3807 17.5 17.5 16.3807 17.5 15V5C17.5 3.61929 16.3807 2.5 15 2.5ZM3.5 5C3.5 4.17157 4.17157 3.5 5 3.5H15C15.8284 3.5 16.5 4.17157 16.5 5V15C16.5 15.8284 15.8284 16.5 15 16.5H5C4.17157 16.5 3.5 15.8284 3.5 15V5ZM13.1 8.45004C13.3485 8.11867 13.2814 7.64857 12.95 7.40004C12.6186 7.15152 12.1485 7.21867 11.9 7.55004L9.35 10.95L7.95 9.90004C7.61863 9.65152 7.14853 9.71867 6.9 10.05C6.65147 10.3814 6.71863 10.8515 7.05 11.1L8.89 12.48C9.30973 12.7948 9.9052 12.7098 10.22 12.29L13.1 8.45004Z" fill="#181D25"/>
</svg>
