<svg width="20" height="20" viewBox="0 0 20 20" fill="none" xmlns="http://www.w3.org/2000/svg">
<g opacity="0.6">
<path d="M13.125 11.875H13.75V12.5C13.75 12.6658 13.8158 12.8247 13.9331 12.9419C14.0503 13.0592 14.2092 13.125 14.375 13.125C14.5408 13.125 14.6997 13.0592 14.8169 12.9419C14.9342 12.8247 15 12.6658 15 12.5V11.875H15.625C15.7908 11.875 15.9497 11.8092 16.0669 11.6919C16.1842 11.5747 16.25 11.4158 16.25 11.25C16.25 11.0842 16.1842 10.9253 16.0669 10.8081C15.9497 10.6908 15.7908 10.625 15.625 10.625H15V10C15 9.83424 14.9342 9.67527 14.8169 9.55806C14.6997 9.44085 14.5408 9.375 14.375 9.375C14.2092 9.375 14.0503 9.44085 13.9331 9.55806C13.8158 9.67527 13.75 9.83424 13.75 10V10.625H13.125C12.9592 10.625 12.8003 10.6908 12.6831 10.8081C12.5658 10.9253 12.5 11.0842 12.5 11.25C12.5 11.4158 12.5658 11.5747 12.6831 11.6919C12.8003 11.8092 12.9592 11.875 13.125 11.875Z" fill="#333D4C"/>
<path d="M7.31694 11.6919C7.19973 11.8092 7.04076 11.875 6.875 11.875H4.375C4.20924 11.875 4.05027 11.8092 3.93306 11.6919C3.81585 11.5747 3.75 11.4158 3.75 11.25C3.75 11.0842 3.81585 10.9253 3.93306 10.8081C4.05027 10.6908 4.20924 10.625 4.375 10.625H6.875C7.04076 10.625 7.19973 10.6908 7.31694 10.8081C7.43415 10.9253 7.5 11.0842 7.5 11.25C7.5 11.4158 7.43415 11.5747 7.31694 11.6919Z" fill="#333D4C"/>
<path fill-rule="evenodd" clip-rule="evenodd" d="M18.125 3.75H16.875V1.875C16.875 1.70924 16.8092 1.55027 16.6919 1.43306C16.5747 1.31585 16.4158 1.25 16.25 1.25H13.75C13.5842 1.25 13.4253 1.31585 13.3081 1.43306C13.1908 1.55027 13.125 1.70924 13.125 1.875V3.75H6.875V1.875C6.875 1.70924 6.80915 1.55027 6.69194 1.43306C6.57473 1.31585 6.41576 1.25 6.25 1.25H3.75C3.58424 1.25 3.42527 1.31585 3.30806 1.43306C3.19085 1.55027 3.125 1.70924 3.125 1.875V3.75H1.875C1.37772 3.75 0.900805 3.94754 0.549175 4.29917C0.197544 4.65081 0 5.12772 0 5.625V6.875C0 7.20652 0.131696 7.52446 0.366117 7.75888C0.600537 7.9933 0.918479 8.125 1.25 8.125V16.875C1.25 17.3723 1.44754 17.8492 1.79917 18.2008C2.15081 18.5525 2.62772 18.75 3.125 18.75H16.875C17.3723 18.75 17.8492 18.5525 18.2008 18.2008C18.5525 17.8492 18.75 17.3723 18.75 16.875V8.125C19.0815 8.125 19.3995 7.9933 19.6339 7.75888C19.8683 7.52446 20 7.20652 20 6.875V5.625C20 5.12772 19.8025 4.65081 19.4508 4.29917C19.0992 3.94754 18.6223 3.75 18.125 3.75ZM14.375 2.5H15.625V3.75H14.375V2.5ZM4.375 2.5H5.625V3.75H4.375V2.5ZM17.5 16.875C17.5 17.0408 17.4342 17.1997 17.3169 17.3169C17.1997 17.4342 17.0408 17.5 16.875 17.5H3.125C2.95924 17.5 2.80027 17.4342 2.68306 17.3169C2.56585 17.1997 2.5 17.0408 2.5 16.875V8.125H17.5V16.875ZM18.75 6.875H1.25V5.625C1.25 5.45924 1.31585 5.30027 1.43306 5.18306C1.55027 5.06585 1.70924 5 1.875 5H18.125C18.2908 5 18.4497 5.06585 18.5669 5.18306C18.6842 5.30027 18.75 5.45924 18.75 5.625V6.875Z" fill="#333D4C"/>
</g>
</svg>
