<svg width="746" height="14" viewBox="0 0 746 14" fill="none" xmlns="http://www.w3.org/2000/svg">
<g clip-path="url(#clip0_36_4901)">
<path d="M7.59373 1.20014C7.49546 1.00104 7.29268 0.875 7.07066 0.875C6.84863 0.875 6.64585 1.00104 6.54758 1.20014L4.88067 4.57711L1.15296 5.12197C0.933295 5.15407 0.750898 5.30808 0.682428 5.51925C0.613958 5.73042 0.671284 5.96215 0.830311 6.11704L3.52718 8.7438L2.89072 12.4547C2.85318 12.6736 2.94316 12.8948 3.12281 13.0253C3.30246 13.1558 3.54063 13.173 3.73717 13.0696L7.07066 11.3166L10.4041 13.0696C10.6007 13.173 10.8388 13.1558 11.0185 13.0253C11.1982 12.8948 11.2881 12.6736 11.2506 12.4547L10.6141 8.7438L13.311 6.11704C13.47 5.96215 13.5274 5.73042 13.4589 5.51925C13.3904 5.30808 13.208 5.15407 12.9884 5.12197L9.26064 4.57711L7.59373 1.20014Z" fill="#FC9231"/>
</g>
<g clip-path="url(#clip1_36_4901)">
<path d="M25.5937 1.20014C25.4955 1.00104 25.2927 0.875 25.0707 0.875C24.8486 0.875 24.6458 1.00104 24.5476 1.20014L22.8807 4.57711L19.153 5.12197C18.9333 5.15407 18.7509 5.30808 18.6824 5.51925C18.614 5.73042 18.6713 5.96215 18.8303 6.11704L21.5272 8.7438L20.8907 12.4547C20.8532 12.6736 20.9432 12.8948 21.1228 13.0253C21.3025 13.1558 21.5406 13.173 21.7372 13.0696L25.0707 11.3166L28.4041 13.0696C28.6007 13.173 28.8388 13.1558 29.0185 13.0253C29.1982 12.8948 29.2881 12.6736 29.2506 12.4547L28.6141 8.7438L31.311 6.11704C31.47 5.96215 31.5274 5.73042 31.4589 5.51925C31.3904 5.30808 31.208 5.15407 30.9884 5.12197L27.2606 4.57711L25.5937 1.20014Z" fill="#FC9231"/>
</g>
<g clip-path="url(#clip2_36_4901)">
<path d="M43.5937 1.20014C43.4955 1.00104 43.2927 0.875 43.0707 0.875C42.8486 0.875 42.6459 1.00104 42.5476 1.20014L40.8807 4.57711L37.153 5.12197C36.9333 5.15407 36.7509 5.30808 36.6824 5.51925C36.614 5.73042 36.6713 5.96215 36.8303 6.11704L39.5272 8.7438L38.8907 12.4547C38.8532 12.6736 38.9432 12.8948 39.1228 13.0253C39.3025 13.1558 39.5406 13.173 39.7372 13.0696L43.0707 11.3166L46.4041 13.0696C46.6007 13.173 46.8388 13.1558 47.0185 13.0253C47.1982 12.8948 47.2881 12.6736 47.2506 12.4547L46.6141 8.7438L49.311 6.11704C49.47 5.96215 49.5274 5.73042 49.4589 5.51925C49.3904 5.30808 49.208 5.15407 48.9884 5.12197L45.2606 4.57711L43.5937 1.20014Z" fill="#FC9231"/>
</g>
<g clip-path="url(#clip3_36_4901)">
<path d="M61.5937 1.20014C61.4955 1.00104 61.2927 0.875 61.0707 0.875C60.8486 0.875 60.6459 1.00104 60.5476 1.20014L58.8807 4.57711L55.153 5.12197C54.9333 5.15407 54.7509 5.30808 54.6824 5.51925C54.614 5.73042 54.6713 5.96215 54.8303 6.11704L57.5272 8.7438L56.8907 12.4547C56.8532 12.6736 56.9432 12.8948 57.1228 13.0253C57.3025 13.1558 57.5406 13.173 57.7372 13.0696L61.0707 11.3166L64.4041 13.0696C64.6007 13.173 64.8388 13.1558 65.0185 13.0253C65.1982 12.8948 65.2881 12.6736 65.2506 12.4547L64.6141 8.7438L67.311 6.11704C67.47 5.96215 67.5274 5.73042 67.4589 5.51925C67.3904 5.30808 67.208 5.15407 66.9884 5.12197L63.2606 4.57711L61.5937 1.20014Z" fill="#FC9231"/>
</g>
<path fill-rule="evenodd" clip-rule="evenodd" d="M78.9977 0.875C79.192 0.875 79.3694 0.985287 79.4554 1.15949L81.1393 4.5708L84.9049 5.1212C85.0971 5.14929 85.2567 5.28405 85.3166 5.46882C85.3765 5.6536 85.3263 5.85636 85.1872 5.99189L82.4629 8.64541L83.1058 12.3941C83.1386 12.5856 83.0599 12.7792 82.9027 12.8934C82.7455 13.0076 82.5371 13.0226 82.3652 12.9322L78.9977 11.1613L75.6303 12.9322C75.4583 13.0226 75.2499 13.0076 75.0927 12.8934C74.9355 12.7792 74.8568 12.5856 74.8897 12.3941L75.5326 8.64541L72.8083 5.99189C72.6691 5.85636 72.619 5.6536 72.6789 5.46882C72.7388 5.28405 72.8984 5.14929 73.0906 5.1212L76.8562 4.5708L78.54 1.15949C78.626 0.985287 78.8035 0.875 78.9977 0.875ZM78.9977 2.53858L77.6529 5.26301C77.5786 5.4135 77.4351 5.51786 77.2691 5.54213L74.261 5.98181L76.4372 8.10144C76.5576 8.21871 76.6125 8.38772 76.5841 8.55337L76.0707 11.5472L78.7602 10.1328C78.9089 10.0546 79.0866 10.0546 79.2353 10.1328L81.9248 11.5472L81.4113 8.55337C81.3829 8.38772 81.4379 8.21871 81.5583 8.10144L83.7345 5.98181L80.7264 5.54213C80.5603 5.51786 80.4168 5.4135 80.3425 5.26301L78.9977 2.53858Z" fill="#CAD0D9"/>
<defs>
<clipPath id="clip0_36_4901">
<rect width="14" height="14" fill="white"/>
</clipPath>
<clipPath id="clip1_36_4901">
<rect width="14" height="14" fill="white" transform="translate(18)"/>
</clipPath>
<clipPath id="clip2_36_4901">
<rect width="14" height="14" fill="white" transform="translate(36)"/>
</clipPath>
<clipPath id="clip3_36_4901">
<rect width="14" height="14" fill="white" transform="translate(54)"/>
</clipPath>
</defs>
</svg>
