<svg width="16" height="16" viewBox="0 0 16 16" fill="none" xmlns="http://www.w3.org/2000/svg">
<path fill-rule="evenodd" clip-rule="evenodd" d="M9.89066 1.65704C10.4064 1.44333 10.9592 1.33333 11.5175 1.33333C12.0758 1.33333 12.6286 1.44333 13.1444 1.65704C13.6602 1.87074 14.1288 2.18397 14.5234 2.57883C14.9182 2.97347 15.2314 3.44201 15.445 3.95768C15.6587 4.47345 15.7687 5.02626 15.7687 5.58455C15.7687 6.14284 15.6587 6.69565 15.445 7.21142C15.2314 7.72714 14.9182 8.19571 14.5233 8.59036C14.5233 8.59039 14.5234 8.59033 14.5233 8.59036L8.63001 14.4837C8.4022 14.7115 8.03285 14.7115 7.80505 14.4837L1.91172 8.59036C1.11452 7.79317 0.666667 6.71195 0.666667 5.58455C0.666667 4.45715 1.11452 3.37593 1.91172 2.57874C2.70891 1.78155 3.79013 1.33369 4.91753 1.33369C6.04493 1.33369 7.12615 1.78155 7.92334 2.57874L8.21753 2.87293L8.51162 2.57883C8.90629 2.18397 9.3749 1.87074 9.89066 1.65704ZM13.6983 3.4036C13.412 3.11713 13.072 2.88989 12.6978 2.73484C12.3236 2.5798 11.9226 2.5 11.5175 2.5C11.1125 2.5 10.7114 2.5798 10.3373 2.73484C9.96307 2.88989 9.6231 3.11713 9.33677 3.4036L8.63001 4.11036C8.4022 4.33817 8.03285 4.33817 7.80505 4.11036L7.09838 3.4037C6.51998 2.8253 5.73551 2.50036 4.91753 2.50036C4.09955 2.50036 3.31507 2.8253 2.73667 3.4037C2.15827 3.98209 1.83333 4.76657 1.83333 5.58455C1.83333 6.40253 2.15827 7.18701 2.73667 7.7654L8.21753 13.2463L13.6984 7.7654C13.9848 7.47907 14.2122 7.13901 14.3672 6.76483C14.5223 6.39064 14.6021 5.98958 14.6021 5.58455C14.6021 5.17952 14.5223 4.77846 14.3672 4.40428C14.2122 4.03009 13.9848 3.68993 13.6983 3.4036Z" fill="#333D4C"/>
</svg>
