<svg width="86" height="86" viewBox="0 0 86 86" fill="none" xmlns="http://www.w3.org/2000/svg">
<rect width="86" height="86" fill="#F5F7FA"/>
<path fill-rule="evenodd" clip-rule="evenodd" d="M55 33.3333H31C30.0795 33.3333 29.3333 34.0795 29.3333 35V51C29.3333 51.9205 30.0795 52.6667 31 52.6667H55C55.9205 52.6667 56.6667 51.9205 56.6667 51V35C56.6667 34.0795 55.9205 33.3333 55 33.3333ZM31 31C28.7909 31 27 32.7909 27 35V51C27 53.2091 28.7909 55 31 55H55C57.2091 55 59 53.2091 59 51V35C59 32.7909 57.2091 31 55 31H31Z" fill="#181D25"/>
<path fill-rule="evenodd" clip-rule="evenodd" d="M31.1667 49.6667C31.1667 49.0223 31.689 48.5 32.3333 48.5H36.3333C36.9777 48.5 37.5 49.0223 37.5 49.6667C37.5 50.311 36.9777 50.8333 36.3333 50.8333H32.3333C31.689 50.8333 31.1667 50.311 31.1667 49.6667Z" fill="#181D25"/>
<path fill-rule="evenodd" clip-rule="evenodd" d="M31.1667 37.6667C31.1667 37.0223 31.689 36.5 32.3333 36.5H53.6667C54.311 36.5 54.8333 37.0223 54.8333 37.6667C54.8333 38.311 54.311 38.8333 53.6667 38.8333H32.3333C31.689 38.8333 31.1667 38.311 31.1667 37.6667Z" fill="#181D25"/>
</svg>
