<svg width="16" height="16" viewBox="0 0 16 16" fill="none" xmlns="http://www.w3.org/2000/svg">
<g clip-path="url(#clip0_9796_6509)">
<path fill-rule="evenodd" clip-rule="evenodd" d="M6.00016 13.9166C5.95414 13.9166 5.91683 13.954 5.91683 14C5.91683 14.046 5.95414 14.0833 6.00016 14.0833C6.04619 14.0833 6.0835 14.046 6.0835 14C6.0835 13.954 6.04619 13.9166 6.00016 13.9166ZM4.75016 14C4.75016 13.3096 5.30981 12.75 6.00016 12.75C6.69052 12.75 7.25016 13.3096 7.25016 14C7.25016 14.6903 6.69052 15.25 6.00016 15.25C5.30981 15.25 4.75016 14.6903 4.75016 14Z" fill="#333D4C"/>
<path fill-rule="evenodd" clip-rule="evenodd" d="M13.3335 13.9166C13.2875 13.9166 13.2502 13.954 13.2502 14C13.2502 14.046 13.2875 14.0833 13.3335 14.0833C13.3795 14.0833 13.4168 14.046 13.4168 14C13.4168 13.954 13.3795 13.9166 13.3335 13.9166ZM12.0835 14C12.0835 13.3096 12.6431 12.75 13.3335 12.75C14.0239 12.75 14.5835 13.3096 14.5835 14C14.5835 14.6903 14.0239 15.25 13.3335 15.25C12.6431 15.25 12.0835 14.6903 12.0835 14Z" fill="#333D4C"/>
<path fill-rule="evenodd" clip-rule="evenodd" d="M0.0834961 0.666646C0.0834961 0.34448 0.344663 0.083313 0.666829 0.083313H3.3335C3.61153 0.083313 3.85092 0.279538 3.90549 0.552163L4.47881 3.41665H15.3335C15.5073 3.41665 15.6721 3.49419 15.783 3.62814C15.8938 3.76209 15.9391 3.93848 15.9065 4.10925L14.839 9.70696C14.7514 10.1482 14.5113 10.5445 14.1609 10.8266C13.8121 11.1074 13.376 11.2571 12.9284 11.25H6.4586C6.01098 11.2571 5.5749 11.1074 5.22607 10.8266C4.8758 10.5446 4.63582 10.1485 4.54811 9.70746L3.43395 4.14085C3.42974 4.12387 3.42628 4.10661 3.42359 4.08908L2.85535 1.24998H0.666829C0.344663 1.24998 0.0834961 0.988812 0.0834961 0.666646ZM4.71232 4.58331L5.69232 9.47967C5.72661 9.65232 5.82054 9.80741 5.95765 9.91778C6.09476 10.0282 6.26633 10.0868 6.44232 10.0834L6.4535 10.0833H12.9335L12.9447 10.0834C13.1207 10.0868 13.2922 10.0282 13.4293 9.91778C13.566 9.80781 13.6597 9.65346 13.6943 9.48157L13.6947 9.47967L14.6284 4.58331H4.71232Z" fill="#333D4C"/>
</g>
<defs>
<clipPath id="clip0_9796_6509">
<rect width="16" height="16" fill="white"/>
</clipPath>
</defs>
</svg>
