<svg width="563" height="21" viewBox="0 0 563 21" fill="none" xmlns="http://www.w3.org/2000/svg">
<path fill-rule="evenodd" clip-rule="evenodd" d="M0.998227 15.5H0V14.5H0.998227V15.5ZM4.99113 15.5H2.99468V14.5H4.99113V15.5ZM8.98404 15.5H6.98759V14.5H8.98404V15.5ZM12.9769 15.5H10.9805V14.5H12.9769V15.5ZM16.9699 15.5H14.9734V14.5H16.9699V15.5ZM20.9628 15.5H18.9663V14.5H20.9628V15.5ZM24.9557 15.5H22.9592V14.5H24.9557V15.5ZM28.9486 15.5H26.9521V14.5H28.9486V15.5ZM32.9415 15.5H30.945V14.5H32.9415V15.5ZM36.9344 15.5H34.9379V14.5H36.9344V15.5ZM40.9273 15.5H38.9308V14.5H40.9273V15.5ZM44.9202 15.5H42.9238V14.5H44.9202V15.5ZM48.9131 15.5H46.9167V14.5H48.9131V15.5ZM52.906 15.5H50.9096V14.5H52.906V15.5ZM56.8989 15.5H54.9025V14.5H56.8989V15.5ZM60.8918 15.5H58.8954V14.5H60.8918V15.5ZM64.8847 15.5H62.8883V14.5H64.8847V15.5ZM68.8776 15.5H66.8812V14.5H68.8776V15.5ZM72.8705 15.5H70.8741V14.5H72.8705V15.5ZM76.8634 15.5H74.867V14.5H76.8634V15.5ZM80.8563 15.5H78.8599V14.5H80.8563V15.5ZM84.8493 15.5H82.8528V14.5H84.8493V15.5ZM88.8422 15.5H86.8457V14.5H88.8422V15.5ZM92.8351 15.5H90.8386V14.5H92.8351V15.5ZM96.828 15.5H94.8315V14.5H96.828V15.5ZM100.821 15.5H98.8244V14.5H100.821V15.5ZM104.814 15.5H102.817V14.5H104.814V15.5ZM108.807 15.5H106.81V14.5H108.807V15.5ZM112.8 15.5H110.803V14.5H112.8V15.5ZM116.792 15.5H114.796V14.5H116.792V15.5ZM120.785 15.5H118.789V14.5H120.785V15.5ZM124.778 15.5H122.782V14.5H124.778V15.5ZM128.771 15.5H126.775V14.5H128.771V15.5ZM132.764 15.5H130.768V14.5H132.764V15.5ZM136.757 15.5H134.761V14.5H136.757V15.5ZM140.75 15.5H138.754V14.5H140.75V15.5ZM144.743 15.5H142.746V14.5H144.743V15.5ZM148.736 15.5H146.739V14.5H148.736V15.5ZM152.729 15.5H150.732V14.5H152.729V15.5ZM156.722 15.5H154.725V14.5H156.722V15.5ZM160.715 15.5H158.718V14.5H160.715V15.5ZM164.707 15.5H162.711V14.5H164.707V15.5ZM168.7 15.5H166.704V14.5H168.7V15.5ZM172.693 15.5H170.697V14.5H172.693V15.5ZM176.686 15.5H174.69V14.5H176.686V15.5ZM180.679 15.5H178.683V14.5H180.679V15.5ZM184.672 15.5H182.676V14.5H184.672V15.5ZM188.665 15.5H186.669V14.5H188.665V15.5ZM192.658 15.5H190.661V14.5H192.658V15.5ZM196.651 15.5H194.654V14.5H196.651V15.5ZM200.644 15.5H198.647V14.5H200.644V15.5ZM204.637 15.5H202.64V14.5H204.637V15.5ZM208.63 15.5H206.633V14.5H208.63V15.5ZM212.623 15.5H210.626V14.5H212.623V15.5ZM216.615 15.5H214.619V14.5H216.615V15.5ZM220.608 15.5H218.612V14.5H220.608V15.5ZM224.601 15.5H222.605V14.5H224.601V15.5ZM228.594 15.5H226.598V14.5H228.594V15.5ZM232.587 15.5H230.591V14.5H232.587V15.5ZM236.58 15.5H234.584V14.5H236.58V15.5ZM240.573 15.5H238.577V14.5H240.573V15.5ZM244.566 15.5H242.569V14.5H244.566V15.5ZM248.559 15.5H246.562V14.5H248.559V15.5ZM252.552 15.5H250.555V14.5H252.552V15.5ZM256.545 15.5H254.548V14.5H256.545V15.5ZM260.538 15.5H258.541V14.5H260.538V15.5ZM264.53 15.5H262.534V14.5H264.53V15.5ZM268.523 15.5H266.527V14.5H268.523V15.5ZM272.516 15.5H270.52V14.5H272.516V15.5ZM276.509 15.5H274.513V14.5H276.509V15.5ZM280.502 15.5H278.506V14.5H280.502V15.5ZM284.495 15.5H282.499V14.5H284.495V15.5ZM288.488 15.5H286.492V14.5H288.488V15.5ZM292.481 15.5H290.484V14.5H292.481V15.5ZM296.474 15.5H294.477V14.5H296.474V15.5ZM300.467 15.5H298.47V14.5H300.467V15.5ZM304.46 15.5H302.463V14.5H304.46V15.5ZM308.453 15.5H306.456V14.5H308.453V15.5ZM312.446 15.5H310.449V14.5H312.446V15.5ZM316.438 15.5H314.442V14.5H316.438V15.5ZM320.431 15.5H318.435V14.5H320.431V15.5ZM324.424 15.5H322.428V14.5H324.424V15.5ZM328.417 15.5H326.421V14.5H328.417V15.5ZM332.41 15.5H330.414V14.5H332.41V15.5ZM336.403 15.5H334.407V14.5H336.403V15.5ZM340.396 15.5H338.4V14.5H340.396V15.5ZM344.389 15.5H342.392V14.5H344.389V15.5ZM348.382 15.5H346.385V14.5H348.382V15.5ZM352.375 15.5H350.378V14.5H352.375V15.5ZM356.368 15.5H354.371V14.5H356.368V15.5ZM360.361 15.5H358.364V14.5H360.361V15.5ZM364.353 15.5H362.357V14.5H364.353V15.5ZM368.346 15.5H366.35V14.5H368.346V15.5ZM372.339 15.5H370.343V14.5H372.339V15.5ZM376.332 15.5H374.336V14.5H376.332V15.5ZM380.325 15.5H378.329V14.5H380.325V15.5ZM384.318 15.5H382.322V14.5H384.318V15.5ZM388.311 15.5H386.315V14.5H388.311V15.5ZM392.304 15.5H390.307V14.5H392.304V15.5ZM396.297 15.5H394.3V14.5H396.297V15.5ZM400.29 15.5H398.293V14.5H400.29V15.5ZM404.283 15.5H402.286V14.5H404.283V15.5ZM408.276 15.5H406.279V14.5H408.276V15.5ZM412.269 15.5H410.272V14.5H412.269V15.5ZM416.261 15.5H414.265V14.5H416.261V15.5ZM420.254 15.5H418.258V14.5H420.254V15.5ZM424.247 15.5H422.251V14.5H424.247V15.5ZM428.24 15.5H426.244V14.5H428.24V15.5ZM432.233 15.5H430.237V14.5H432.233V15.5ZM436.226 15.5H434.23V14.5H436.226V15.5ZM440.219 15.5H438.222V14.5H440.219V15.5ZM444.212 15.5H442.215V14.5H444.212V15.5ZM448.205 15.5H446.208V14.5H448.205V15.5ZM452.198 15.5H450.201V14.5H452.198V15.5ZM456.191 15.5H454.194V14.5H456.191V15.5ZM460.184 15.5H458.187V14.5H460.184V15.5ZM464.176 15.5H462.18V14.5H464.176V15.5ZM468.169 15.5H466.173V14.5H468.169V15.5ZM472.162 15.5H470.166V14.5H472.162V15.5ZM476.155 15.5H474.159V14.5H476.155V15.5ZM480.148 15.5H478.152V14.5H480.148V15.5ZM484.141 15.5H482.145V14.5H484.141V15.5ZM488.134 15.5H486.138V14.5H488.134V15.5ZM492.127 15.5H490.13V14.5H492.127V15.5ZM496.12 15.5H494.123V14.5H496.12V15.5ZM500.113 15.5H498.116V14.5H500.113V15.5ZM504.106 15.5H502.109V14.5H504.106V15.5ZM508.099 15.5H506.102V14.5H508.099V15.5ZM512.091 15.5H510.095V14.5H512.091V15.5ZM516.084 15.5H514.088V14.5H516.084V15.5ZM520.077 15.5H518.081V14.5H520.077V15.5ZM524.07 15.5H522.074V14.5H524.07V15.5ZM528.063 15.5H526.067V14.5H528.063V15.5ZM532.056 15.5H530.06V14.5H532.056V15.5ZM536.049 15.5H534.053V14.5H536.049V15.5ZM540.042 15.5H538.045V14.5H540.042V15.5ZM544.035 15.5H542.038V14.5H544.035V15.5ZM548.028 15.5H546.031V14.5H548.028V15.5ZM552.021 15.5H550.024V14.5H552.021V15.5ZM556.014 15.5H554.017V14.5H556.014V15.5ZM560.007 15.5H558.01V14.5H560.007V15.5ZM563 15.5H562.003V14.5H563V15.5Z" fill="#E0E5EB"/>
</svg>
