<svg width="14" height="14" viewBox="0 0 14 14" fill="none" xmlns="http://www.w3.org/2000/svg">
<path fill-rule="evenodd" clip-rule="evenodd" d="M11.4443 2.55575C11.6436 2.75508 11.6436 3.07826 11.4443 3.27759L3.27759 11.4443C3.07825 11.6436 2.75508 11.6436 2.55575 11.4443C2.35642 11.2449 2.35642 10.9217 2.55575 10.7224L10.7224 2.55575C10.9217 2.35642 11.2449 2.35642 11.4443 2.55575Z" fill="#333D4C"/>
<path fill-rule="evenodd" clip-rule="evenodd" d="M3.79167 2.84375C3.26815 2.84375 2.84375 3.26815 2.84375 3.79167C2.84375 4.31519 3.26815 4.73958 3.79167 4.73958C4.31519 4.73958 4.73958 4.31519 4.73958 3.79167C4.73958 3.26815 4.31519 2.84375 3.79167 2.84375ZM1.82292 3.79167C1.82292 2.70436 2.70436 1.82292 3.79167 1.82292C4.87898 1.82292 5.76042 2.70436 5.76042 3.79167C5.76042 4.87898 4.87898 5.76042 3.79167 5.76042C2.70436 5.76042 1.82292 4.87898 1.82292 3.79167Z" fill="#333D4C"/>
<path fill-rule="evenodd" clip-rule="evenodd" d="M10.2083 9.26042C9.68481 9.26042 9.26042 9.68481 9.26042 10.2083C9.26042 10.7319 9.68481 11.1562 10.2083 11.1562C10.7319 11.1562 11.1562 10.7319 11.1562 10.2083C11.1562 9.68481 10.7319 9.26042 10.2083 9.26042ZM8.23958 10.2083C8.23958 9.12102 9.12102 8.23958 10.2083 8.23958C11.2956 8.23958 12.1771 9.12102 12.1771 10.2083C12.1771 11.2956 11.2956 12.1771 10.2083 12.1771C9.12102 12.1771 8.23958 11.2956 8.23958 10.2083Z" fill="#333D4C"/>
</svg>
