<svg width="16" height="22" viewBox="0 0 16 22" fill="none" xmlns="http://www.w3.org/2000/svg">
<path fill-rule="evenodd" clip-rule="evenodd" d="M8.58333 3.66667C8.58333 3.3445 8.32217 3.08333 8 3.08333C7.67783 3.08333 7.41667 3.3445 7.41667 3.66667V5.75H6.33333C5.55978 5.75 4.81792 6.05729 4.27094 6.60427C3.72396 7.15125 3.41667 7.89312 3.41667 8.66667C3.41667 9.44021 3.72396 10.1821 4.27094 10.7291C4.81792 11.276 5.55978 11.5833 6.33333 11.5833H7.41667V15.0833H4C3.67783 15.0833 3.41667 15.3445 3.41667 15.6667C3.41667 15.9888 3.67783 16.25 4 16.25H7.41667V18.3333C7.41667 18.6555 7.67783 18.9167 8 18.9167C8.32217 18.9167 8.58333 18.6555 8.58333 18.3333V16.25H9.66667C10.4402 16.25 11.1821 15.9427 11.7291 15.3957C12.276 14.8487 12.5833 14.1069 12.5833 13.3333C12.5833 12.5598 12.276 11.8179 11.7291 11.2709C11.1821 10.724 10.4402 10.4167 9.66667 10.4167H8.58333V6.91667H11.3333C11.6555 6.91667 11.9167 6.6555 11.9167 6.33333C11.9167 6.01117 11.6555 5.75 11.3333 5.75H8.58333V3.66667ZM7.41667 6.91667H6.33333C5.8692 6.91667 5.42408 7.10104 5.0959 7.42923C4.76771 7.75742 4.58333 8.20254 4.58333 8.66667C4.58333 9.1308 4.76771 9.57591 5.0959 9.9041C5.42408 10.2323 5.8692 10.4167 6.33333 10.4167H7.41667V6.91667ZM8.58333 11.5833V15.0833H9.66667C10.1308 15.0833 10.5759 14.899 10.9041 14.5708C11.2323 14.2426 11.4167 13.7975 11.4167 13.3333C11.4167 12.8692 11.2323 12.4241 10.9041 12.0959C10.5759 11.7677 10.1308 11.5833 9.66667 11.5833H8.58333Z" fill="#4E5562"/>
</svg>
