<svg width="16" height="16" viewBox="0 0 16 16" fill="none" xmlns="http://www.w3.org/2000/svg">
<g clip-path="url(#clip0_36_4682)">
<path fill-rule="evenodd" clip-rule="evenodd" d="M6 13.9167C5.95398 13.9167 5.91667 13.954 5.91667 14C5.91667 14.046 5.95398 14.0833 6 14.0833C6.04603 14.0833 6.08334 14.046 6.08334 14C6.08334 13.954 6.04603 13.9167 6 13.9167ZM4.75 14C4.75 13.3096 5.30965 12.75 6 12.75C6.69036 12.75 7.25 13.3096 7.25 14C7.25 14.6904 6.69036 15.25 6 15.25C5.30965 15.25 4.75 14.6904 4.75 14Z" fill="white"/>
<path fill-rule="evenodd" clip-rule="evenodd" d="M13.3333 13.9167C13.2873 13.9167 13.25 13.954 13.25 14C13.25 14.046 13.2873 14.0833 13.3333 14.0833C13.3794 14.0833 13.4167 14.046 13.4167 14C13.4167 13.954 13.3794 13.9167 13.3333 13.9167ZM12.0833 14C12.0833 13.3096 12.643 12.75 13.3333 12.75C14.0237 12.75 14.5833 13.3096 14.5833 14C14.5833 14.6904 14.0237 15.25 13.3333 15.25C12.643 15.25 12.0833 14.6904 12.0833 14Z" fill="white"/>
<path fill-rule="evenodd" clip-rule="evenodd" d="M0.0833359 0.666666C0.0833359 0.3445 0.344503 0.083333 0.666669 0.083333H3.33334C3.61137 0.083333 3.85076 0.279558 3.90533 0.552183L4.47865 3.41667H15.3333C15.5072 3.41667 15.672 3.49421 15.7828 3.62816C15.8936 3.76211 15.9389 3.9385 15.9063 4.10927L14.8388 9.70698C14.7512 10.1482 14.5112 10.5445 14.1608 10.8266C13.8119 11.1074 13.3759 11.2572 12.9282 11.25H6.45844C6.01082 11.2572 5.57474 11.1074 5.22591 10.8266C4.87564 10.5446 4.63566 10.1485 4.54795 9.70748V9.70748L3.43379 4.14087C3.42958 4.12389 3.42612 4.10663 3.42343 4.0891L2.85519 1.25H0.666669C0.344503 1.25 0.0833359 0.988833 0.0833359 0.666666ZM4.71216 4.58333L5.69216 9.47969C5.72645 9.65234 5.82037 9.80743 5.95749 9.9178C6.0946 10.0282 6.26617 10.0868 6.44216 10.0834L6.45334 10.0833H12.9333L12.9445 10.0834C13.1205 10.0868 13.2921 10.0282 13.4292 9.9178C13.5658 9.80783 13.6595 9.65348 13.6941 9.48159L13.6945 9.47969L14.6282 4.58333H4.71216Z" fill="white"/>
</g>
<defs>
<clipPath id="clip0_36_4682">
<rect width="16" height="16" fill="white"/>
</clipPath>
</defs>
</svg>
