<svg width="196" height="112" viewBox="0 0 196 112" fill="none" xmlns="http://www.w3.org/2000/svg">
<path d="M83.6257 65C80.0032 65 76.6406 63.8893 74.396 61.8296C72.7002 60.2734 71.8853 58.1596 71.8853 55.9841C71.8853 53.835 72.7353 51.7067 74.3958 50.1587C76.4803 48.2164 80.1606 47 83.6257 47C87.4602 47 90.5293 47.9875 92.8755 50.1641C94.5448 51.7128 95.3518 53.8317 95.3518 55.9843C95.3518 58.0707 94.4954 60.2927 92.8755 61.8296C90.6908 63.9027 87.2574 65 83.6257 65V62.6259C85.5484 62.6259 87.3319 61.9472 88.5775 60.6801C89.8145 59.4216 90.3908 57.8747 90.3908 55.9841C90.3908 54.1729 89.7691 52.4796 88.5775 51.2786C87.3486 50.0411 85.5225 49.3447 83.6257 49.3447C81.7231 49.3447 79.8958 50.0339 78.6659 51.2786C77.4807 52.4792 76.8574 54.1775 76.8574 55.9841C76.8574 57.7852 77.488 59.4824 78.6659 60.6803C79.8968 61.9322 81.7177 62.6259 83.6257 62.6259V65ZM57.149 47.0086C55.2112 47.0086 53.0098 47.3792 51.1394 48.2332C49.4131 49.0208 48 50.2944 48 52.4059C47.9992 54.3076 49.1813 55.4214 49.1492 55.3906C49.652 55.8638 50.4614 56.6696 52.5777 57.1428C53.5235 57.3543 55.5456 57.679 57.5592 57.8942C59.558 58.1098 61.5251 58.3146 62.3263 58.522C62.9629 58.6877 64.0321 58.9133 64.0321 60.1398C64.0321 61.3613 62.9056 61.7341 62.7098 61.815C62.5143 61.894 61.1629 62.528 58.7335 62.528C56.94 62.528 54.7837 61.9766 53.9978 61.6891C53.0918 61.3594 52.1414 60.9234 51.2548 59.8162C51.0343 59.5417 50.6865 58.7868 50.6865 58.0393H48.488V64.3379H50.9317V63.4869C50.9317 63.39 51.0502 62.9916 51.4604 63.1811C51.9709 63.4182 53.4693 64.0281 55.0359 64.3625C56.3205 64.6372 57.1488 64.8341 58.7458 64.8341C61.3514 64.8341 62.7512 64.4001 63.7189 64.1176C64.6305 63.8507 65.757 63.3716 66.6721 62.6255C67.1677 62.2221 68.2544 61.188 68.2544 59.311C68.2544 57.5093 67.3086 56.391 66.9759 56.0508C66.5227 55.5872 65.9691 55.228 65.3922 54.951C64.8896 54.7092 64.0964 54.4187 63.4474 54.2563C62.1878 53.9401 59.3396 53.5501 57.9775 53.4043C56.5492 53.2518 54.0715 53.0419 53.0819 52.7289C52.7819 52.6338 52.1703 52.3359 52.1703 51.61C52.1703 51.0937 52.45 50.656 53.0028 50.3022C53.8803 49.7401 55.6528 49.3907 57.5004 49.3907C59.6847 49.3825 61.5345 49.8931 62.7112 50.431C63.1114 50.6137 63.5797 50.876 63.9516 51.1865C64.3713 51.5363 64.9604 52.2633 65.1735 53.2772H67.1474V47.7945H64.9434V48.4318C64.9434 48.6375 64.7355 48.9048 64.3426 48.6839C63.3562 48.1548 60.5679 47.0133 57.149 47.0086ZM105.449 48.0049L116.2 57.925L116.09 51.246C116.079 50.3702 115.921 50.0046 114.995 50.0046H112.973V48.0066H122.166V50.0046H120.194C119.249 50.0046 119.19 50.3135 119.178 51.246L119.345 64.008H116.197L103.813 52.7083L103.816 60.7277C103.827 61.5994 103.866 62.01 104.745 62.01H106.953V64.0072H97.9247V62.0102H100.035C100.823 62.0102 100.792 61.2418 100.792 60.6824V51.322C100.792 50.7178 100.709 50.006 99.4715 50.006H97.759V48.0049H105.449ZM132.671 62.0063C132.757 62.0063 133.141 61.995 133.215 61.9718C133.427 61.9041 133.571 61.7493 133.638 61.5879C133.666 61.5202 133.68 61.2204 133.68 61.1554L133.682 57.9979C133.682 57.9219 133.676 57.8891 133.55 57.7199C133.411 57.5351 127.918 51.1709 127.667 50.8906C127.355 50.5426 126.807 50.0048 125.974 50.0048H124.063V48.006H134.844V50.0023H133.544C133.244 50.0023 133.044 50.2938 133.301 50.6178C133.301 50.6178 136.928 55.0537 136.962 55.1001C136.996 55.1473 137.025 55.1586 137.071 55.1155C137.116 55.0713 140.789 50.6584 140.818 50.6235C140.993 50.4096 140.874 50.0046 140.498 50.0046H139.165V48.006H148V50.0046H146.026C145.31 50.0046 145.019 50.14 144.48 50.7627C144.234 51.0477 138.682 57.5263 138.531 57.7018C138.452 57.7936 138.459 57.9215 138.459 57.9975V61.1545C138.459 61.2186 138.473 61.5187 138.501 61.5861C138.568 61.7483 138.712 61.9031 138.924 61.97C138.999 61.9934 139.377 62.0049 139.463 62.0049H141.482V64.0033H130.757V62.0047L132.671 62.0063Z" fill="#6C727F"/>
</svg>
