<svg width="95" height="20" viewBox="0 0 95 20" fill="none" xmlns="http://www.w3.org/2000/svg">
<path d="M15.6706 7.43462H12.4831C12.3922 6.91189 12.2246 6.44882 11.9803 6.04541C11.736 5.63632 11.432 5.28973 11.0684 5.00564C10.7047 4.72155 10.29 4.50848 9.82404 4.36643C9.36381 4.21871 8.86665 4.14484 8.33256 4.14484C7.3837 4.14484 6.54279 4.38348 5.80984 4.86075C5.07688 5.33234 4.50302 6.02552 4.08825 6.9403C3.67347 7.84939 3.46609 8.96018 3.46609 10.2727C3.46609 11.6079 3.67347 12.7329 4.08825 13.6477C4.5087 14.5568 5.08256 15.2443 5.80984 15.7102C6.54279 16.1704 7.38086 16.4005 8.32404 16.4005C8.84677 16.4005 9.33541 16.3323 9.78995 16.196C10.2502 16.0539 10.6621 15.8465 11.0257 15.5738C11.3951 15.3011 11.7047 14.9659 11.9547 14.5681C12.2104 14.1704 12.3865 13.7159 12.4831 13.2045L15.6706 13.2215C15.5513 14.0511 15.2928 14.8295 14.8951 15.5568C14.503 16.284 13.9888 16.9261 13.3525 17.4829C12.7161 18.034 11.9718 18.4659 11.1195 18.7784C10.2672 19.0852 9.3212 19.2386 8.28143 19.2386C6.74734 19.2386 5.37802 18.8835 4.17347 18.1733C2.96893 17.463 2.02006 16.4375 1.32688 15.0965C0.6337 13.7556 0.287109 12.1477 0.287109 10.2727C0.287109 8.392 0.636541 6.78405 1.3354 5.44882C2.03427 4.10791 2.98597 3.08234 4.19052 2.37211C5.39506 1.66189 6.7587 1.30677 8.28143 1.30677C9.25302 1.30677 10.1564 1.44314 10.9917 1.71586C11.8269 1.98859 12.5712 2.38916 13.2246 2.91757C13.878 3.4403 14.415 4.08234 14.8354 4.84371C15.2615 5.59939 15.54 6.46302 15.6706 7.43462Z" fill="white"/>
<path d="M22.1969 19.2642C21.3674 19.2642 20.6202 19.1164 19.9554 18.821C19.2963 18.5198 18.7736 18.0767 18.3873 17.4914C18.0066 16.9062 17.8162 16.1846 17.8162 15.3267C17.8162 14.588 17.9526 13.9772 18.2253 13.4943C18.498 13.0113 18.8702 12.625 19.3418 12.3352C19.8134 12.0454 20.3446 11.8267 20.9355 11.6789C21.5321 11.5255 22.1486 11.4147 22.785 11.3465C23.552 11.267 24.1742 11.196 24.6515 11.1335C25.1287 11.0653 25.4753 10.963 25.6912 10.8267C25.9128 10.6846 26.0236 10.4659 26.0236 10.1704V10.1193C26.0236 9.47723 25.8333 8.98007 25.4526 8.6278C25.0719 8.27552 24.5236 8.09939 23.8077 8.09939C23.052 8.09939 22.4526 8.26416 22.0094 8.59371C21.5719 8.92325 21.2765 9.31246 21.123 9.76132L18.2424 9.35223C18.4696 8.55677 18.8446 7.892 19.3674 7.35791C19.8901 6.81814 20.5293 6.41473 21.285 6.14768C22.0407 5.87496 22.8759 5.73859 23.7907 5.73859C24.4213 5.73859 25.0492 5.81246 25.6742 5.96018C26.2992 6.10791 26.8702 6.35223 27.3873 6.69314C27.9043 7.02836 28.3191 7.48575 28.6316 8.0653C28.9498 8.64484 29.1088 9.36927 29.1088 10.2386V19H26.1429V17.2017H26.0407C25.8532 17.5653 25.589 17.9062 25.248 18.2244C24.9128 18.5369 24.4895 18.7897 23.9782 18.9829C23.4725 19.1704 22.8787 19.2642 22.1969 19.2642ZM22.998 16.9971C23.6174 16.9971 24.1543 16.875 24.6088 16.6306C25.0634 16.3806 25.4128 16.0511 25.6571 15.642C25.9071 15.2329 26.0321 14.7869 26.0321 14.3039V12.7613C25.9355 12.8409 25.7708 12.9147 25.5378 12.9829C25.3105 13.0511 25.0549 13.1108 24.7708 13.1619C24.4867 13.213 24.2054 13.2585 23.927 13.2983C23.6486 13.338 23.4071 13.3721 23.2026 13.4005C22.7424 13.463 22.3304 13.5653 21.9668 13.7073C21.6032 13.8494 21.3162 14.0483 21.106 14.3039C20.8958 14.5539 20.7907 14.8778 20.7907 15.2755C20.7907 15.8437 20.998 16.2727 21.4128 16.5625C21.8276 16.8522 22.356 16.9971 22.998 16.9971Z" fill="white"/>
<path d="M32.2111 19V5.90905H35.2026V8.09087H35.339C35.5776 7.33518 35.9867 6.7528 36.5662 6.34371C37.1515 5.92893 37.8191 5.72155 38.5691 5.72155C38.7395 5.72155 38.9299 5.73007 39.1401 5.74711C39.356 5.75848 39.535 5.77837 39.677 5.80677V8.64484C39.5463 8.59939 39.339 8.55962 39.0549 8.52552C38.7765 8.48575 38.5066 8.46587 38.2452 8.46587C37.6827 8.46587 37.177 8.58802 36.7282 8.83234C36.285 9.07098 35.9355 9.40336 35.6799 9.8295C35.4242 10.2556 35.2963 10.7471 35.2963 11.3039V19H32.2111Z" fill="white"/>
<path d="M48.9668 5.90905V8.29541H41.4412V5.90905H48.9668ZM43.2992 2.77268H46.3844V15.0625C46.3844 15.4772 46.4469 15.7954 46.5719 16.017C46.7026 16.2329 46.873 16.3806 47.0833 16.4602C47.2935 16.5397 47.5265 16.5795 47.7821 16.5795C47.9753 16.5795 48.1515 16.5653 48.3105 16.5369C48.4753 16.5085 48.6003 16.4829 48.6855 16.4602L49.2054 18.8721C49.0407 18.9289 48.8049 18.9914 48.498 19.0596C48.1969 19.1278 47.8276 19.1676 47.3901 19.1789C46.6174 19.2017 45.9213 19.0852 45.302 18.8295C44.6827 18.5681 44.1912 18.1647 43.8276 17.6193C43.4696 17.0738 43.2935 16.392 43.2992 15.5738V2.77268Z" fill="white"/>
<path d="M51.3766 19V17.0397L58.1266 8.57666V8.46587H51.5982V5.90905H61.9022V8.01416L55.476 16.3323V16.4431H62.1238V19H51.3766Z" fill="white"/>
<path d="M65.0236 19V5.90905H68.1088V19H65.0236ZM66.5747 4.05109C66.0861 4.05109 65.6657 3.88916 65.3134 3.5653C64.9611 3.23575 64.785 2.84086 64.785 2.38064C64.785 1.91473 64.9611 1.51984 65.3134 1.19598C65.6657 0.866433 66.0861 0.70166 66.5747 0.70166C67.0691 0.70166 67.4895 0.866433 67.8361 1.19598C68.1884 1.51984 68.3645 1.91473 68.3645 2.38064C68.3645 2.84086 68.1884 3.23575 67.8361 3.5653C67.4895 3.88916 67.0691 4.05109 66.5747 4.05109Z" fill="white"/>
<path d="M74.3667 1.54541V19H71.2814V1.54541H74.3667Z" fill="white"/>
<path d="M80.6245 1.54541V19H77.5392V1.54541H80.6245Z" fill="white"/>
<path d="M87.5641 19.2642C86.7345 19.2642 85.9874 19.1164 85.3226 18.821C84.6635 18.5198 84.1408 18.0767 83.7544 17.4914C83.3738 16.9062 83.1834 16.1846 83.1834 15.3267C83.1834 14.588 83.3198 13.9772 83.5925 13.4943C83.8652 13.0113 84.2374 12.625 84.709 12.3352C85.1806 12.0454 85.7118 11.8267 86.3027 11.6789C86.8993 11.5255 87.5158 11.4147 88.1522 11.3465C88.9192 11.267 89.5414 11.196 90.0186 11.1335C90.4959 11.0653 90.8425 10.963 91.0584 10.8267C91.28 10.6846 91.3908 10.4659 91.3908 10.1704V10.1193C91.3908 9.47723 91.2005 8.98007 90.8198 8.6278C90.4391 8.27552 89.8908 8.09939 89.1749 8.09939C88.4192 8.09939 87.8198 8.26416 87.3766 8.59371C86.9391 8.92325 86.6436 9.31246 86.4902 9.76132L83.6096 9.35223C83.8368 8.55677 84.2118 7.892 84.7346 7.35791C85.2573 6.81814 85.8965 6.41473 86.6522 6.14768C87.4078 5.87496 88.2431 5.73859 89.1578 5.73859C89.7885 5.73859 90.4164 5.81246 91.0414 5.96018C91.6664 6.10791 92.2374 6.35223 92.7544 6.69314C93.2715 7.02836 93.6863 7.48575 93.9988 8.0653C94.3169 8.64484 94.476 9.36927 94.476 10.2386V19H91.5101V17.2017H91.4078C91.2203 17.5653 90.9561 17.9062 90.6152 18.2244C90.28 18.5369 89.8567 18.7897 89.3453 18.9829C88.8397 19.1704 88.2459 19.2642 87.5641 19.2642ZM88.3652 16.9971C88.9846 16.9971 89.5215 16.875 89.976 16.6306C90.4306 16.3806 90.78 16.0511 91.0243 15.642C91.2743 15.2329 91.3993 14.7869 91.3993 14.3039V12.7613C91.3027 12.8409 91.138 12.9147 90.905 12.9829C90.6777 13.0511 90.4221 13.1108 90.138 13.1619C89.8539 13.213 89.5726 13.2585 89.2942 13.2983C89.0158 13.338 88.7743 13.3721 88.5698 13.4005C88.1096 13.463 87.6976 13.5653 87.334 13.7073C86.9703 13.8494 86.6834 14.0483 86.4732 14.3039C86.263 14.5539 86.1578 14.8778 86.1578 15.2755C86.1578 15.8437 86.3652 16.2727 86.78 16.5625C87.1948 16.8522 87.7232 16.9971 88.3652 16.9971Z" fill="white"/>
</svg>
