<svg width="16" height="16" viewBox="0 0 16 16" fill="none" xmlns="http://www.w3.org/2000/svg">
<g clip-path="url(#clip0_36_4961)">
<path fill-rule="evenodd" clip-rule="evenodd" d="M13.763 2.14717C13.5852 1.99449 13.3574 1.91243 13.123 1.91657L13.1127 1.91666H11.916V8.08333H13.1127L13.123 8.08342C13.3574 8.08757 13.5852 8.00551 13.763 7.85282C13.9321 7.70767 14.045 7.50829 14.0827 7.28938V2.71061C14.045 2.4917 13.9321 2.29233 13.763 2.14717ZM10.7494 8.54287L8.30745 14.0372C8.06618 13.9741 7.84367 13.8478 7.6643 13.6684C7.39863 13.4027 7.24937 13.0424 7.24937 12.6667V10C7.24937 9.67783 6.9882 9.41666 6.66604 9.41666H2.8927L2.8861 9.4167C2.77738 9.41793 2.6697 9.39551 2.57051 9.35099C2.47132 9.30648 2.38299 9.24092 2.31165 9.15888C2.24031 9.07684 2.18766 8.98027 2.15734 8.87586C2.12707 8.77157 2.1198 8.66196 2.13604 8.5546V8.5546L3.05611 2.55413C3.08323 2.37529 3.17407 2.21227 3.31189 2.09512C3.44972 1.97797 3.62524 1.91458 3.80611 1.91663L10.7494 1.91666V8.54287ZM13.108 0.749997C13.6262 0.74219 14.1295 0.92423 14.5229 1.26191C14.9177 1.6008 15.1744 2.07286 15.2441 2.58847C15.2476 2.61439 15.2494 2.64051 15.2494 2.66666V7.33333C15.2494 7.35948 15.2476 7.38561 15.2441 7.41152C15.1744 7.92713 14.9177 8.39919 14.5229 8.73808C14.1295 9.07577 13.6262 9.25781 13.1079 9.25H11.7118L9.19909 14.9036C9.10547 15.1142 8.89656 15.25 8.66604 15.25C7.98089 15.25 7.32381 14.9778 6.83934 14.4934C6.35487 14.0089 6.0827 13.3518 6.0827 12.6667V10.5833H2.8957C2.61909 10.5859 2.34519 10.5286 2.0928 10.4154C1.83932 10.3016 1.61359 10.1341 1.43128 9.92442C1.24896 9.71476 1.11441 9.46796 1.03694 9.20114C0.959475 8.93431 0.940947 8.65383 0.982641 8.37913L1.90263 2.3792V2.3792C1.97203 1.92237 2.20422 1.50547 2.5563 1.20619C2.90761 0.907589 3.35474 0.74565 3.8157 0.749997H13.108Z" fill="#6C727F"/>
</g>
<defs>
<clipPath id="clip0_36_4961">
<rect width="16" height="16" fill="white"/>
</clipPath>
</defs>
</svg>
