<svg width="16" height="16" viewBox="0 0 16 16" fill="none" xmlns="http://www.w3.org/2000/svg">
<path fill-rule="evenodd" clip-rule="evenodd" d="M15.3333 2.08333C15.6555 2.08333 15.9167 2.3445 15.9167 2.66667V6.66667C15.9167 6.98883 15.6555 7.25 15.3333 7.25H11.3333C11.0112 7.25 10.75 6.98883 10.75 6.66667C10.75 6.3445 11.0112 6.08333 11.3333 6.08333H14.75V2.66667C14.75 2.3445 15.0112 2.08333 15.3333 2.08333Z" fill="#333D4C"/>
<path fill-rule="evenodd" clip-rule="evenodd" d="M0.0833329 9.33333C0.0833329 9.01117 0.3445 8.75 0.666666 8.75H4.66667C4.98883 8.75 5.25 9.01117 5.25 9.33333C5.25 9.6555 4.98883 9.91667 4.66667 9.91667H1.25V13.3333C1.25 13.6555 0.988832 13.9167 0.666666 13.9167C0.3445 13.9167 0.0833329 13.6555 0.0833329 13.3333V9.33333Z" fill="#333D4C"/>
<path fill-rule="evenodd" clip-rule="evenodd" d="M9.50138 2.79821C8.62241 2.54397 7.69336 2.51653 6.80092 2.71846C5.90848 2.92038 5.08174 3.34509 4.39784 3.95295C3.71393 4.56081 3.19516 5.33201 2.88992 6.1946C2.78244 6.49831 2.44911 6.65739 2.1454 6.54992C1.84169 6.44244 1.68261 6.10911 1.79008 5.8054C2.16107 4.75703 2.79158 3.81972 3.62278 3.08094C4.45399 2.34215 5.4588 1.82597 6.54346 1.58055C7.62811 1.33514 8.75726 1.36848 9.82555 1.67749C10.8908 1.98562 11.861 2.55785 12.646 3.341L15.7328 6.24156C15.9676 6.46217 15.9791 6.83134 15.7584 7.06612C15.5378 7.3009 15.1687 7.31238 14.9339 7.09177L11.8405 4.18511C11.8361 4.18093 11.8317 4.17669 11.8274 4.17238C11.1806 3.52521 10.3803 3.05245 9.50138 2.79821ZM0.24156 8.93388C0.462172 8.6991 0.83134 8.68762 1.06612 8.90823L4.15945 11.8149C4.1639 11.8191 4.16827 11.8233 4.17258 11.8276C4.81942 12.4748 5.61966 12.9475 6.49862 13.2018C7.37759 13.456 8.30664 13.4835 9.19908 13.2815C10.0915 13.0796 10.9183 12.6549 11.6022 12.047C12.2861 11.4392 12.8048 10.668 13.1101 9.8054C13.2176 9.50169 13.5509 9.34261 13.8546 9.45008C14.1583 9.55756 14.3174 9.89089 14.2099 10.1946C13.8389 11.243 13.2084 12.1803 12.3772 12.9191C11.546 13.6578 10.5412 14.174 9.45654 14.4194C8.37189 14.6649 7.24274 14.6315 6.17445 14.3225C5.10917 14.0144 4.13903 13.4421 3.35404 12.659L0.267213 9.75844C0.0324336 9.53783 0.0209485 9.16866 0.24156 8.93388Z" fill="#333D4C"/>
</svg>
