<svg width="20" height="20" viewBox="0 0 20 20" fill="none" xmlns="http://www.w3.org/2000/svg">
<g opacity="0.6" clip-path="url(#clip0_1885_38969)">
<path d="M19.9381 14.6536L19.1154 10.1782C18.8509 8.13248 17.1002 6.59215 15.036 6.59215H4.96379C2.89955 6.59215 1.14892 8.13248 0.884439 10.1782L0.0616591 14.6536C-0.34742 16.8789 1.33007 18.9569 3.58016 19.0472C5.72416 19.1331 7.4467 17.3827 7.45344 15.2941C7.45352 15.2867 7.21153 15.2892 12.5464 15.2892C12.5464 17.3707 14.2691 19.1336 16.4197 19.0472C18.6596 18.9573 20.3493 16.8895 19.9381 14.6536ZM17.7322 17.4121C16.7664 18.0923 15.428 18.0345 14.5242 17.1662C14.0141 16.6762 13.7216 15.9895 13.7216 15.282C13.7216 14.6506 13.2012 14.114 12.5464 14.114H7.45344C6.79877 14.114 6.27815 14.6505 6.27815 15.282C6.27815 16.7155 5.10087 17.9319 3.62725 17.8729C2.27998 17.8189 1.21548 16.7162 1.17313 15.3908C1.16251 15.059 1.15076 15.2296 2.04327 10.3747C2.04531 10.3637 2.04703 10.3525 2.04841 10.3413C2.23183 8.87393 3.48516 7.7674 4.96375 7.7674H15.036C16.5146 7.7674 17.7679 8.87393 17.9513 10.3413C17.9545 10.3672 17.8963 10.0477 18.7822 14.8662C18.9698 15.8853 18.5124 16.8626 17.7322 17.4121Z" fill="#333D4C"/>
<path d="M7.17878 10.6665H6.19937V9.68707C6.19937 9.36253 5.93626 9.09943 5.61173 9.09943C5.28719 9.09943 5.02408 9.36253 5.02408 9.68707V10.6665H4.04468C3.72014 10.6665 3.45703 10.9296 3.45703 11.2541C3.45703 11.5787 3.72014 11.8418 4.04468 11.8418H5.02408V12.8212C5.02408 13.1457 5.28719 13.4088 5.61173 13.4088C5.93626 13.4088 6.19937 13.1457 6.19937 12.8212V11.8418H7.17878C7.50331 11.8418 7.76642 11.5787 7.76642 11.2541C7.76642 10.9296 7.50331 10.6665 7.17878 10.6665Z" fill="#333D4C"/>
<path d="M14.9645 9.57216C14.8918 9.22518 14.5478 9.02636 14.2174 9.12477C13.8783 9.23525 13.7391 9.57134 13.826 9.85736C13.9336 10.1936 14.2708 10.3368 14.5586 10.2491C14.8627 10.1521 15.0188 9.86261 14.9645 9.57216Z" fill="#333D4C"/>
<path d="M15.9547 10.6665C15.6302 10.6665 15.367 10.9296 15.367 11.2541V11.2933C15.367 11.6178 15.6302 11.8809 15.9547 11.8809C16.2792 11.8809 16.5423 11.6178 16.5423 11.2933V11.2541C16.5423 10.9296 16.2792 10.6665 15.9547 10.6665Z" fill="#333D4C"/>
<path d="M12.822 10.6665C12.4975 10.6665 12.2344 10.9296 12.2344 11.2541V11.2933C12.2344 11.6179 12.4975 11.881 12.822 11.881C13.1466 11.881 13.4097 11.6179 13.4097 11.2933V11.2541C13.4097 10.9296 13.1466 10.6665 12.822 10.6665Z" fill="#333D4C"/>
<path d="M14.9642 12.7064C14.8915 12.3594 14.5475 12.1606 14.2171 12.259C13.8795 12.369 13.7393 12.7011 13.8257 12.992C13.938 13.3352 14.2759 13.4694 14.5583 13.3833C14.8613 13.2867 15.0188 12.9978 14.9642 12.7064Z" fill="#333D4C"/>
<path d="M8.47681 4.08907C8.24731 4.31857 8.24731 4.69062 8.47681 4.92012C8.70626 5.14957 9.07836 5.14957 9.30786 4.92012C9.69061 4.53737 10.3101 4.53729 10.6929 4.92012C10.9224 5.14961 11.2945 5.14961 11.524 4.92012C11.7535 4.69062 11.7535 4.31857 11.524 4.08907C10.6839 3.24894 9.31695 3.24898 8.47681 4.08907Z" fill="#333D4C"/>
<path d="M7.53442 3.14726C8.89701 1.78467 11.1026 1.78444 12.4653 3.14726C12.6948 3.37676 13.0669 3.37676 13.2964 3.14726C13.5259 2.91777 13.5259 2.54571 13.2964 2.31621C11.4745 0.494322 8.5255 0.494087 6.70337 2.31621C6.47388 2.54571 6.47388 2.91777 6.70337 3.14726C6.93287 3.37676 7.30496 3.37676 7.53442 3.14726Z" fill="#333D4C"/>
</g>
<defs>
<clipPath id="clip0_1885_38969">
<rect width="20" height="20" fill="white"/>
</clipPath>
</defs>
</svg>
