<svg width="20" height="20" viewBox="0 0 20 20" fill="none" xmlns="http://www.w3.org/2000/svg">
<g opacity="0.6">
<path fill-rule="evenodd" clip-rule="evenodd" d="M5.3125 1.40625C3.93178 1.40625 2.8125 2.52553 2.8125 3.90625V16.0938C2.8125 17.4745 3.93178 18.5938 5.3125 18.5938H14.6875C16.0682 18.5938 17.1875 17.4745 17.1875 16.0938V3.90625C17.1875 2.52553 16.0682 1.40625 14.6875 1.40625H5.3125ZM1.5625 3.90625C1.5625 1.83517 3.24142 0.15625 5.3125 0.15625H14.6875C16.7586 0.15625 18.4375 1.83517 18.4375 3.90625V16.0938C18.4375 18.1648 16.7586 19.8438 14.6875 19.8438H5.3125C3.24142 19.8438 1.5625 18.1648 1.5625 16.0938V3.90625Z" fill="#333D4C"/>
<path fill-rule="evenodd" clip-rule="evenodd" d="M10 4.375C7.75634 4.375 5.9375 6.19384 5.9375 8.4375C5.9375 10.6812 7.75634 12.5 10 12.5C12.2437 12.5 14.0625 10.6812 14.0625 8.4375C14.0625 6.19384 12.2437 4.375 10 4.375ZM4.6875 8.4375C4.6875 5.50349 7.06599 3.125 10 3.125C12.934 3.125 15.3125 5.50349 15.3125 8.4375C15.3125 11.3715 12.934 13.75 10 13.75C7.06599 13.75 4.6875 11.3715 4.6875 8.4375Z" fill="#333D4C"/>
<path fill-rule="evenodd" clip-rule="evenodd" d="M10.4419 7.99556C10.686 8.23964 10.686 8.63536 10.4419 8.87944L5.75444 13.5669C5.51036 13.811 5.11464 13.811 4.87056 13.5669C4.62648 13.3229 4.62648 12.9271 4.87056 12.6831L9.55806 7.99556C9.80214 7.75148 10.1979 7.75148 10.4419 7.99556Z" fill="#333D4C"/>
</g>
</svg>
