<svg width="20" height="20" viewBox="0 0 20 20" fill="none" xmlns="http://www.w3.org/2000/svg">
<g opacity="0.6">
<path d="M17.6467 11.2053V8.82357C17.6467 6.79545 16.841 4.85039 15.4069 3.41629C13.9728 1.98218 12.0278 1.17651 9.99966 1.17651C7.97153 1.17651 6.02647 1.98218 4.59237 3.41629C3.15827 4.85039 2.3526 6.79545 2.3526 8.82357V11.2053C1.86459 11.2725 1.41728 11.5138 1.09303 11.8846C0.768767 12.2555 0.589381 12.731 0.587891 13.2236V16.7765C0.588513 17.3192 0.804385 17.8396 1.18815 18.2233C1.57191 18.6071 2.09223 18.8229 2.63495 18.8236H4.57613C4.92222 18.8234 5.2541 18.6859 5.49894 18.4413C5.74377 18.1967 5.88154 17.865 5.88201 17.5189V12.4812C5.88154 12.1353 5.74393 11.8037 5.49935 11.5592C5.25477 11.3146 4.92319 11.177 4.5773 11.1765H3.52907V8.82357C3.52907 7.10747 4.21079 5.46165 5.42426 4.24818C6.63773 3.03471 8.28355 2.35298 9.99966 2.35298C11.7158 2.35298 13.3616 3.03471 14.5751 4.24818C15.7885 5.46165 16.4702 7.10747 16.4702 8.82357V11.1765H15.422C15.0761 11.177 14.7445 11.3146 14.5 11.5592C14.2554 11.8037 14.1178 12.1353 14.1173 12.4812V17.5189C14.1178 17.8648 14.2554 18.1963 14.5 18.4409C14.7445 18.6855 15.0761 18.8231 15.422 18.8236H17.3632C17.9061 18.8233 18.4267 18.6075 18.8107 18.2237C19.1948 17.8399 19.4108 17.3194 19.4114 16.7765V13.2236C19.4099 12.731 19.2305 12.2555 18.9063 11.8846C18.582 11.5138 18.1347 11.2725 17.6467 11.2053ZM4.70554 12.4812V17.5189C4.70538 17.5528 4.69182 17.5854 4.66781 17.6094C4.64379 17.6334 4.61127 17.6469 4.5773 17.6471H2.63495C2.40415 17.6468 2.18289 17.555 2.01969 17.3918C1.85649 17.2286 1.76467 17.0073 1.76436 16.7765V13.2236C1.76467 12.9928 1.85649 12.7715 2.01969 12.6083C2.18289 12.4451 2.40415 12.3533 2.63495 12.353H4.57613C4.59304 12.3529 4.60981 12.3562 4.62547 12.3626C4.64113 12.369 4.65537 12.3784 4.66739 12.3903C4.67941 12.4022 4.68896 12.4164 4.69551 12.432C4.70205 12.4476 4.70546 12.4643 4.70554 12.4812ZM18.235 16.7753C18.235 17.0063 18.1433 17.2279 17.98 17.3914C17.8168 17.5548 17.5954 17.6468 17.3644 17.6471H15.4232C15.4063 17.6472 15.3895 17.6439 15.3738 17.6375C15.3582 17.6311 15.3439 17.6217 15.3319 17.6098C15.3199 17.5979 15.3103 17.5837 15.3038 17.5681C15.2973 17.5525 15.2939 17.5358 15.2938 17.5189V12.4812C15.2939 12.4473 15.3075 12.4147 15.3315 12.3907C15.3555 12.3667 15.388 12.3531 15.422 12.353H17.3632C17.5942 12.353 17.8157 12.4447 17.9792 12.6079C18.1427 12.7711 18.2346 12.9926 18.235 13.2236V16.7753Z" fill="#333D4C"/>
</g>
</svg>
