<svg width="18" height="18" viewBox="0 0 18 18" fill="none" xmlns="http://www.w3.org/2000/svg">
<path fill-rule="evenodd" clip-rule="evenodd" d="M11.127 1.86417C11.7072 1.62374 12.3291 1.5 12.9572 1.5C13.5853 1.5 14.2072 1.62375 14.7874 1.86417C15.3677 2.10459 15.8949 2.45697 16.3389 2.90119C16.783 3.34515 17.1353 3.87226 17.3757 4.4524C17.6161 5.03263 17.7398 5.65455 17.7398 6.28262C17.7398 6.91069 17.6161 7.53261 17.3757 8.11284C17.1353 8.69303 16.7829 9.22017 16.3388 9.66416C16.3387 9.66419 16.3388 9.66412 16.3388 9.66416L9.70876 16.2942C9.45248 16.5504 9.03696 16.5504 8.78068 16.2942L2.15068 9.66416C1.25384 8.76732 0.75 7.55094 0.75 6.28262C0.75 5.0143 1.25384 3.79792 2.15068 2.90108C3.04752 2.00424 4.26389 1.5004 5.53222 1.5004C6.80054 1.5004 8.01692 2.00424 8.91376 2.90108L9.24472 3.23204L9.57557 2.90119C10.0196 2.45697 10.5468 2.10459 11.127 1.86417ZM15.4106 3.82905C15.0884 3.50677 14.706 3.25112 14.285 3.0767C13.8641 2.90228 13.4129 2.8125 12.9572 2.8125C12.5016 2.8125 12.0504 2.90228 11.6294 3.0767C11.2085 3.25112 10.826 3.50677 10.5039 3.82905L9.70876 4.62416C9.45248 4.88044 9.03696 4.88044 8.78068 4.62416L7.98568 3.82916C7.33498 3.17846 6.45244 2.8129 5.53222 2.8129C4.61199 2.8129 3.72946 3.17846 3.07876 3.82916C2.42806 4.47986 2.0625 5.36239 2.0625 6.28262C2.0625 7.20285 2.42806 8.08538 3.07876 8.73608L9.24472 14.902L15.4107 8.73608C15.733 8.41396 15.9887 8.03138 16.1631 7.61043C16.3376 7.18947 16.4273 6.73828 16.4273 6.28262C16.4273 5.82696 16.3376 5.37576 16.1631 4.95481C15.9887 4.53386 15.7328 4.15117 15.4106 3.82905Z" fill="#333D4C"/>
</svg>
