<svg width="16" height="16" viewBox="0 0 16 16" fill="none" xmlns="http://www.w3.org/2000/svg">
<g clip-path="url(#clip0_36_4952)">
<path fill-rule="evenodd" clip-rule="evenodd" d="M6.80028 1.09642C6.8939 0.885761 7.10281 0.75 7.33333 0.75C8.01848 0.75 8.67556 1.02217 9.16003 1.50664C9.6445 1.99111 9.91667 2.64819 9.91667 3.33333V5.41667H13.1037C13.3803 5.41406 13.6542 5.47135 13.9066 5.58462C14.1601 5.69839 14.3858 5.86591 14.5681 6.07557C14.7504 6.28524 14.885 6.53203 14.9624 6.79886C15.0399 7.06569 15.0584 7.34617 15.0167 7.62087L14.0967 13.6208V13.6208C14.0274 14.0777 13.7952 14.4945 13.4431 14.7938C13.0918 15.0924 12.6446 15.2544 12.1836 15.25H2.66667C2.15833 15.25 1.67082 15.0481 1.31138 14.6886C0.951934 14.3292 0.75 13.8417 0.75 13.3333V8.66667C0.75 8.15833 0.951934 7.67082 1.31138 7.31138C1.67082 6.95193 2.15833 6.75 2.66667 6.75H4.28757L6.80028 1.09642ZM5.25 7.45712L7.69192 1.9628C7.93319 2.02593 8.1557 2.15223 8.33507 2.3316C8.60075 2.59727 8.75 2.95761 8.75 3.33333V6C8.75 6.32217 9.01117 6.58333 9.33333 6.58333H13.1067L13.1133 6.5833C13.222 6.58206 13.3297 6.60448 13.4289 6.649C13.5281 6.69352 13.6164 6.75907 13.6877 6.84111C13.7591 6.92316 13.8117 7.01973 13.842 7.12414C13.8723 7.22845 13.8796 7.3381 13.8633 7.44549V7.44549L12.9433 13.4459C12.9161 13.6247 12.8253 13.7877 12.6875 13.9049C12.5497 14.022 12.3741 14.0854 12.1933 14.0834L5.25 14.0833V7.45712ZM4.08333 14.0833V7.91667H2.66667C2.46775 7.91667 2.27699 7.99568 2.13634 8.13634C1.99568 8.27699 1.91667 8.46775 1.91667 8.66667V13.3333C1.91667 13.5322 1.99568 13.723 2.13634 13.8637C2.27699 14.0043 2.46775 14.0833 2.66667 14.0833H4.08333Z" fill="#6C727F"/>
</g>
<defs>
<clipPath id="clip0_36_4952">
<rect width="16" height="16" fill="white"/>
</clipPath>
</defs>
</svg>
