<svg width="20" height="20" viewBox="0 0 20 20" fill="none" xmlns="http://www.w3.org/2000/svg">
<g opacity="0.6">
<path fill-rule="evenodd" clip-rule="evenodd" d="M2.84149 2.76994C2.99351 1.75272 3.86713 1 4.89561 1H15.5275C16.5799 1 17.4659 1.7871 17.5899 2.83217L19.0335 14.9953C19.0786 15.375 18.8073 15.7194 18.4276 15.7644C18.0479 15.8095 17.7035 15.5382 17.6585 15.1585L16.215 2.99533C16.1736 2.64702 15.8782 2.38462 15.5275 2.38462H4.89561C4.55277 2.38462 4.26157 2.63554 4.21089 2.97459L2.3869 15.1793C2.33039 15.5574 1.97802 15.8182 1.59986 15.7617C1.22172 15.7051 0.960975 15.3527 1.0175 14.9746L2.84149 2.76994Z" fill="#333D4C"/>
<path fill-rule="evenodd" clip-rule="evenodd" d="M4.45962 13.4615C3.31256 13.4615 2.38269 14.3914 2.38269 15.5385C2.38269 16.6855 3.31256 17.6154 4.45962 17.6154H15.5365C16.6836 17.6154 17.6135 16.6855 17.6135 15.5385C17.6135 14.3914 16.6836 13.4615 15.5365 13.4615H4.45962ZM0.998077 15.5385C0.998077 13.6267 2.54786 12.0769 4.45962 12.0769H15.5365C17.4483 12.0769 18.9981 13.6267 18.9981 15.5385C18.9981 17.4502 17.4483 19 15.5365 19H4.45962C2.54786 19 0.998077 17.4502 0.998077 15.5385Z" fill="#333D4C"/>
<path d="M9.53759 15.5386C9.53759 15.0287 9.12433 14.6155 8.61451 14.6155C8.10472 14.6155 7.69144 15.0287 7.69144 15.5386C7.69144 16.0484 8.10472 16.4616 8.61451 16.4616C9.12433 16.4616 9.53759 16.0484 9.53759 15.5386Z" fill="#333D4C"/>
<path fill-rule="evenodd" clip-rule="evenodd" d="M11.6133 15.5385C11.6133 15.1562 11.9233 14.8462 12.3056 14.8462H15.0749C15.4572 14.8462 15.7672 15.1562 15.7672 15.5385C15.7672 15.9208 15.4572 16.2308 15.0749 16.2308H12.3056C11.9233 16.2308 11.6133 15.9208 11.6133 15.5385Z" fill="#333D4C"/>
<path fill-rule="evenodd" clip-rule="evenodd" d="M8.38284 4.46159C8.38284 4.07925 8.69281 3.76929 9.07515 3.76929H10.9213C11.3036 3.76929 11.6136 4.07925 11.6136 4.46159C11.6136 4.84394 11.3036 5.1539 10.9213 5.1539H9.07515C8.69281 5.1539 8.38284 4.84394 8.38284 4.46159Z" fill="#333D4C"/>
</g>
</svg>
