<svg width="18" height="18" viewBox="0 0 18 18" fill="none" xmlns="http://www.w3.org/2000/svg">
<path fill-rule="evenodd" clip-rule="evenodd" d="M17.25 2.34375C17.6124 2.34375 17.9062 2.63756 17.9062 3V7.5C17.9062 7.86244 17.6124 8.15625 17.25 8.15625H12.75C12.3876 8.15625 12.0937 7.86244 12.0937 7.5C12.0937 7.13756 12.3876 6.84375 12.75 6.84375H16.5937V3C16.5937 2.63756 16.8876 2.34375 17.25 2.34375Z" fill="#333D4C"/>
<path fill-rule="evenodd" clip-rule="evenodd" d="M0.0937501 10.5C0.0937501 10.1376 0.387563 9.84375 0.75 9.84375H5.25C5.61244 9.84375 5.90625 10.1376 5.90625 10.5C5.90625 10.8624 5.61244 11.1562 5.25 11.1562H1.40625V15C1.40625 15.3624 1.11244 15.6562 0.75 15.6562C0.387563 15.6562 0.0937501 15.3624 0.0937501 15V10.5Z" fill="#333D4C"/>
<path fill-rule="evenodd" clip-rule="evenodd" d="M10.689 3.14799C9.70021 2.86197 8.65503 2.8311 7.65104 3.05826C6.64705 3.28543 5.71696 3.76323 4.94757 4.44707C4.17817 5.13091 3.59455 5.99852 3.25116 6.96892C3.13025 7.3106 2.75525 7.48956 2.41358 7.36866C2.0719 7.24775 1.89293 6.87275 2.01384 6.53108C2.4312 5.35166 3.14052 4.29719 4.07563 3.46606C5.01074 2.63492 6.14115 2.05422 7.36139 1.77812C8.58163 1.50203 9.85192 1.53955 11.0537 1.88717C12.2522 2.23382 13.3436 2.87758 14.2267 3.75863L17.6994 7.02175C17.9635 7.26994 17.9764 7.68526 17.7282 7.94938C17.4801 8.21351 17.0647 8.22643 16.8006 7.97824L13.3206 4.70824C13.3156 4.70355 13.3107 4.69877 13.3058 4.69392C12.5781 3.96586 11.6779 3.43401 10.689 3.14799ZM0.271756 10.0506C0.519944 9.78649 0.935258 9.77357 1.19938 10.0218L4.67938 13.2918C4.68438 13.2965 4.68931 13.3012 4.69415 13.3061C5.42185 14.0341 6.32212 14.566 7.31095 14.852C8.29979 15.138 9.34497 15.1689 10.349 14.9417C11.353 14.7146 12.283 14.2368 13.0524 13.5529C13.8218 12.8691 14.4054 12.0015 14.7488 11.0311C14.8697 10.6894 15.2447 10.5104 15.5864 10.6313C15.9281 10.7522 16.1071 11.1272 15.9862 11.4689C15.5688 12.6483 14.8595 13.7028 13.9244 14.5339C12.9893 15.3651 11.8588 15.9458 10.6386 16.2219C9.41837 16.498 8.14808 16.4605 6.94626 16.1128C5.74781 15.7662 4.65641 15.1224 3.77329 14.2414L0.300615 10.9782C0.0364885 10.7301 0.0235676 10.3147 0.271756 10.0506Z" fill="#333D4C"/>
</svg>
