<svg width="20" height="20" viewBox="0 0 20 20" fill="none" xmlns="http://www.w3.org/2000/svg">
<g opacity="0.6">
<path d="M14.2504 4.30626L13.3629 0.512506C13.2942 0.212481 13.0254 0 12.7129 0H7.28795C6.97545 0 6.70671 0.212481 6.63792 0.512506L5.75043 4.30626C2.0567 7.5 2.0567 12.5 5.75043 15.6937L6.63792 19.4875C6.7067 19.7875 6.97544 20 7.28794 20H12.7129C13.0254 20 13.2942 19.7875 13.3629 19.4875L14.2504 15.6937C17.9442 12.5 17.9442 7.5 14.2504 4.30626ZM7.81918 1.33125H12.1817L12.6942 3.50624C11.0004 2.79999 9.00044 2.79999 7.30667 3.50624L7.81918 1.33125ZM12.1817 18.6687H7.81918L7.30667 16.4938C7.35669 16.5125 7.41291 16.5313 7.46292 16.55C9.13792 17.2 11.0317 17.1625 12.6942 16.4938L12.1817 18.6687ZM12.8004 14.9625C9.13792 17.1062 4.2067 14.2625 4.30668 10C4.2067 5.73749 9.13792 2.89375 12.8004 5.0375C16.6129 7.08748 16.6129 12.9125 12.8004 14.9625Z" fill="#333D4C"/>
<path d="M10.9506 12.1834L9.17286 10.4056C9.06297 10.2947 9.00111 10.145 9.00064 9.98891V7.00002H10.184V9.71669L11.8118 11.3222L10.9506 12.1834Z" fill="#333D4C"/>
</g>
</svg>
